<?xml version="1.0" standalone="no"?>
<!DOCTYPE svg PUBLIC "-//W3C//DTD SVG 20010904//EN"
 "http://www.w3.org/TR/2001/REC-SVG-20010904/DTD/svg10.dtd">
<svg version="1.0" xmlns="http://www.w3.org/2000/svg"
 width="290.000000pt" height="174.000000pt" viewBox="0 0 290.000000 174.000000"
 preserveAspectRatio="xMidYMid meet">
<metadata>
Created by potrace 1.10, written by Peter Selinger 2001-2011
</metadata>
<g transform="translate(0.000000,174.000000) scale(0.100000,-0.100000)"
fill="#000000" stroke="none">
<path d="M1255 1428 c-23 -21 -24 -25 -11 -50 8 -14 76 -95 153 -178 76 -83
139 -155 141 -159 1 -4 -62 -79 -140 -165 -79 -87 -149 -169 -156 -183 -13
-23 -12 -28 7 -47 19 -19 35 -21 145 -24 91 -3 132 0 158 11 41 17 355 356
364 393 4 17 -1 34 -19 57 -49 64 -298 331 -325 349 -23 15 -49 18 -159 18
-123 0 -134 -2 -158 -22z m468 -206 l169 -183 -38 -42 c-21 -23 -99 -108 -172
-189 l-135 -148 -143 0 c-79 0 -144 3 -144 6 0 3 76 88 169 188 l169 182 -169
185 c-93 101 -169 186 -169 189 0 3 66 3 147 0 l148 -5 168 -183z"/>
<path d="M1190 1219 l-47 -51 -57 17 c-54 16 -58 16 -77 -1 -26 -23 -24 -35
11 -91 17 -26 30 -51 30 -57 0 -5 -14 -31 -31 -57 -47 -74 -17 -118 62 -90 54
19 70 13 118 -40 l46 -51 23 19 c18 14 25 32 29 79 l5 60 59 26 c91 40 89 71
-7 114 l-51 22 -6 57 c-5 54 -27 95 -50 95 -6 0 -31 -23 -57 -51z m141 -154
c39 -11 72 -22 75 -26 2 -3 -30 -16 -71 -28 l-75 -23 0 -86 0 -87 -48 71 -47
72 -77 -29 c-43 -16 -78 -26 -78 -24 0 3 22 34 49 68 l49 63 -48 64 c-27 36
-47 66 -46 67 1 2 36 -8 76 -22 40 -14 74 -25 76 -25 1 0 21 30 45 67 l44 67
3 -85 3 -85 70 -19z"/>
<path d="M710 573 c-64 -44 -79 -94 -51 -158 33 -74 121 -102 187 -58 24 15
27 15 56 -2 39 -23 97 -23 132 0 27 18 29 18 58 1 25 -16 34 -16 54 -6 18 10
30 11 49 2 37 -17 59 -15 89 9 l26 20 26 -20 c34 -27 84 -27 118 0 l27 21 23
-21 c17 -16 35 -21 80 -21 31 0 67 5 78 11 15 8 27 8 45 -2 20 -11 28 -11 45
0 16 10 26 10 50 0 21 -8 35 -9 52 -1 17 8 35 6 70 -5 43 -14 50 -14 92 2 34
13 49 14 57 6 6 -6 41 -11 77 -11 98 0 102 9 101 194 0 38 -30 56 -96 56 -37
0 -69 -6 -80 -14 -17 -12 -23 -12 -47 0 -37 19 -94 18 -129 -3 -27 -16 -31
-16 -58 0 -34 20 -121 23 -139 5 -10 -10 -17 -10 -33 0 -28 18 -215 13 -250
-6 -23 -13 -29 -13 -50 1 -29 18 -140 17 -163 -2 -12 -10 -19 -10 -38 3 -29
21 -57 20 -80 -1 -17 -15 -21 -15 -54 0 -44 21 -98 22 -133 1 -25 -15 -30 -15
-59 0 -41 21 -101 20 -132 -1z m131 -39 c19 -17 19 -17 0 -31 -16 -10 -25 -11
-46 -1 -22 10 -29 9 -46 -9 -38 -38 3 -89 51 -63 15 8 25 8 40 -3 19 -13 19
-14 2 -30 -28 -26 -75 -31 -110 -13 -71 37 -69 123 3 165 26 15 82 7 106 -15z
m197 -9 c32 -38 30 -89 -7 -126 -39 -38 -80 -39 -123 0 -46 41 -45 92 1 133
28 25 39 29 70 24 21 -3 45 -16 59 -31z m332 -24 c18 -78 26 -80 45 -14 15 55
20 61 46 65 23 4 29 1 24 -9 -2 -8 -15 -48 -26 -89 l-22 -74 -41 0 -42 0 -27
83 c-15 46 -27 86 -27 88 0 3 13 4 29 1 26 -3 31 -10 41 -51z m645 47 c23 -10
24 -13 9 -29 -13 -14 -21 -16 -42 -8 -16 6 -29 6 -35 0 -10 -10 29 -31 58 -31
8 0 22 -11 30 -24 40 -61 -49 -110 -127 -70 -28 14 -29 17 -15 32 13 13 21 13
42 4 34 -16 55 -15 55 2 0 7 -14 16 -32 20 -67 13 -87 60 -42 95 30 24 61 26
99 9z m-833 -44 l33 -47 3 47 c3 41 6 46 28 46 24 0 24 -2 24 -85 l0 -85 -30
0 c-23 0 -35 9 -60 45 -17 25 -34 45 -37 45 -3 0 -3 -20 0 -45 6 -44 6 -45
-21 -45 l-27 0 0 85 0 85 27 0 c20 0 35 -11 60 -46z m478 21 c0 -23 -2 -24
-45 -18 -31 4 -45 2 -45 -6 0 -6 17 -11 40 -11 36 0 40 -3 40 -24 0 -22 -3
-24 -40 -19 -34 5 -40 3 -40 -12 0 -15 6 -17 45 -12 43 6 45 5 45 -18 0 -24
-2 -25 -70 -25 l-70 0 0 85 0 85 70 0 c68 0 70 -1 70 -25z m187 -4 c10 -21 9
-30 -4 -52 -15 -25 -15 -29 0 -53 24 -35 21 -43 -11 -38 -20 3 -31 12 -39 33
-6 16 -19 29 -28 29 -13 0 -15 -6 -10 -30 6 -28 5 -30 -22 -30 l-28 0 3 85 3
86 62 -3 c54 -3 63 -6 74 -27z m373 4 c0 -23 -2 -24 -44 -19 -27 4 -46 2 -50
-5 -5 -7 7 -11 38 -11 42 0 46 -2 46 -23 0 -21 -5 -24 -40 -23 -21 1 -38 -3
-37 -9 1 -5 21 -9 45 -8 38 1 42 -1 42 -23 0 -23 -3 -24 -70 -24 l-70 0 0 85
0 85 70 0 c68 0 70 -1 70 -25z"/>
<path d="M940 496 c-16 -20 -9 -56 13 -70 39 -24 79 44 41 71 -23 17 -39 16
-54 -1z"/>
<path d="M1750 500 c0 -5 14 -10 31 -10 17 0 28 4 24 10 -3 6 -17 10 -31 10
-13 0 -24 -4 -24 -10z"/>
</g>
</svg>
