 <svg  version="1.0" xmlns="http://www.w3.org/2000/svg"  width="594.000000pt" height="765.000000pt" viewBox="0 0 594.000000 765.000000"  preserveAspectRatio="xMidYMid meet">  <g transform="translate(0.000000,765.000000) scale(0.100000,-0.100000)" fill="#db1414" stroke="none"> <path d="M1618 6461 c-35 -36 -79 -86 -98 -111 -32 -42 -59 -72 -150 -169 -46 -49 -92 -102 -160 -181 -30 -36 -94 -104 -142 -151 l-88 -86 0 -188 c0 -165 -2 -191 -17 -208 -22 -24 -21 -132 2 -157 12 -14 15 -112 15 -679 1 -461 -2 -666 -10 -675 -8 -10 -4 -18 17 -32 23 -15 51 -20 147 -22 123 -4 166 7 111 28 -47 18 -85 50 -99 85 -24 57 -9 1391 16 1409 1 1 17 8 34 15 26 10 36 10 53 -1 25 -15 27 -48 10 -147 -9 -50 -9 -80 1 -129 8 -41 12 -135 11 -265 -3 -242 -2 -682 1 -752 1 -27 -1 -57 -6 -67 -5 -12 -2 -18 13 -23 12 -3 36 -20 53 -36 18 -16 37 -29 43 -29 19 0 95 -75 96 -95 1 -39 18 16 18 62 1 23 7 54 15 70 8 15 22 45 32 65 26 54 64 78 124 79 39 1 55 -3 75 -22 13 -13 25 -29 25 -35 0 -6 7 -17 15 -24 8 -7 15 -22 15 -34 0 -12 7 -31 15 -42 8 -10 15 -39 15 -64 0 -64 -32 -290 -42 -290 -4 0 -8 -11 -8 -24 0 -37 49 -45 89 -15 17 13 31 23 31 24 0 1 -9 12 -20 25 -18 20 -20 37 -20 139 1 75 6 130 15 156 8 22 15 50 15 63 0 12 4 22 9 22 5 0 13 10 16 23 11 37 39 91 53 100 6 4 12 12 12 17 0 36 83 83 130 74 50 -10 78 -51 82 -119 3 -33 9 -80 16 -105 18 -74 33 -152 39 -202 3 -26 11 -52 19 -59 8 -6 14 -17 14 -25 0 -13 29 -34 47 -34 5 0 17 16 26 36 15 30 16 53 11 147 -7 117 -15 147 -39 147 -8 0 -15 7 -15 15 0 9 -7 18 -15 21 -8 4 -15 15 -15 25 0 11 -7 22 -15 25 -8 4 -15 18 -15 34 0 17 -14 45 -35 72 -19 24 -45 59 -58 78 -14 19 -32 41 -41 49 -9 7 -16 20 -16 28 0 7 -7 16 -15 19 -8 4 -15 14 -15 24 0 10 -7 23 -15 30 -8 7 -15 19 -15 27 0 13 -15 48 -41 93 -5 8 -12 22 -15 30 -3 8 -12 27 -20 42 -8 14 -14 36 -14 49 0 12 -6 30 -14 38 -21 23 -33 173 -21 248 11 68 65 163 93 163 21 0 92 -64 92 -83 0 -8 7 -20 15 -27 8 -7 15 -22 15 -34 0 -12 7 -31 15 -42 8 -10 15 -30 15 -45 0 -14 5 -30 12 -37 6 -6 14 -30 17 -52 13 -94 24 -21 26 175 4 372 2 348 30 362 45 20 47 1 42 -385 -4 -325 -6 -360 -23 -389 -18 -30 -18 -33 -1 -68 9 -19 17 -52 17 -73 0 -45 14 -72 24 -47 3 9 6 25 6 35 0 10 6 19 13 21 15 5 289 5 517 1 124 -2 171 -7 188 -18 26 -17 28 -8 7 32 -8 16 -13 41 -10 55 6 24 3 27 -37 32 -23 3 -47 2 -53 -3 -7 -6 -16 -5 -23 2 -9 9 -18 8 -36 -1 -15 -9 -37 -11 -58 -7 -18 4 -55 9 -83 10 -27 2 -107 6 -177 11 l-128 8 0 397 0 397 23 20 c21 20 34 21 283 22 l262 2 6 -27 7 -27 28 27 c31 30 100 37 121 11 7 -8 18 -15 25 -15 7 0 18 -7 25 -15 7 -8 17 -12 22 -9 5 3 3 13 -6 23 -22 24 -11 31 52 31 68 0 81 -15 82 -87 0 -66 -13 -68 -69 -12 -23 23 -44 39 -48 36 -3 -4 16 -29 43 -56 70 -70 104 -108 104 -116 0 -4 14 -24 30 -45 17 -21 30 -42 30 -48 0 -5 7 -12 15 -16 8 -3 15 -15 15 -26 0 -11 7 -20 15 -20 19 0 19 27 0 37 -12 7 -15 51 -17 267 l-3 258 -204 3 c-112 2 -208 8 -213 13 -10 10 0 42 13 42 5 0 14 11 18 24 15 37 65 42 107 10 22 -17 40 -24 51 -19 16 6 15 9 -7 19 -36 16 -57 40 -68 78 -6 18 -13 40 -17 50 -4 11 0 18 14 23 26 8 27 22 4 29 -10 3 -29 16 -43 28 -14 13 -41 34 -60 47 -19 14 -39 30 -43 38 -11 18 -27 17 -27 -2 0 -8 6 -15 14 -15 23 0 26 -52 5 -93 -25 -49 -24 -53 9 -73 49 -29 57 -108 16 -151 -7 -7 -14 -16 -16 -21 -13 -31 -148 -71 -148 -43 0 5 -13 14 -30 20 -16 5 -30 15 -30 20 0 17 -27 13 -34 -4 -6 -17 -47 -20 -62 -5 -8 8 -21 -5 -45 -42 -24 -38 -43 -56 -66 -63 -18 -5 -33 -13 -33 -17 0 -4 -15 -8 -32 -8 -48 0 -116 63 -120 110 -5 61 41 49 87 -22 37 -59 125 -18 125 59 0 29 -3 33 -25 33 -52 0 -90 82 -57 123 6 7 14 28 19 47 7 25 16 36 31 38 34 5 26 19 -20 42 -24 11 -61 32 -83 48 -36 25 -40 32 -40 72 0 42 2 45 29 48 16 2 32 0 35 -5 3 -4 29 -26 56 -48 28 -22 55 -46 62 -55 9 -11 14 -12 23 -3 9 8 7 14 -8 22 -18 10 -19 13 -5 58 8 26 21 62 29 80 8 17 14 36 14 42 0 13 33 31 58 31 22 0 32 -18 32 -60 0 -16 5 -32 10 -35 17 -10 11 -28 -7 -21 -20 8 -33 -10 -33 -49 0 -32 -23 -66 -54 -82 -16 -9 -10 -15 45 -52 72 -48 139 -107 139 -122 0 -6 4 -8 9 -4 6 3 9 23 9 44 0 22 7 50 16 62 9 13 16 33 16 45 0 11 12 34 26 49 14 15 22 31 17 35 -40 34 -93 70 -102 70 -6 0 -11 4 -11 10 0 5 -11 12 -25 16 -22 5 -25 12 -25 49 0 38 3 44 26 49 l26 7 -26 20 c-14 11 -26 26 -26 34 0 7 -7 16 -16 19 -52 20 -104 -12 -104 -63 0 -16 -7 -34 -15 -41 -8 -7 -15 -19 -15 -26 0 -26 -26 -14 -42 20 -16 32 -15 36 4 75 11 22 37 54 58 71 32 25 47 30 92 30 44 0 58 -4 74 -22 52 -59 68 -110 39 -122 -24 -9 -18 -23 22 -47 21 -13 45 -30 54 -39 58 -54 78 -70 87 -70 6 0 12 -3 14 -7 2 -5 37 -30 78 -57 102 -67 120 -84 120 -118 0 -23 -4 -28 -24 -28 -36 0 -40 -16 -16 -55 20 -32 26 -35 69 -35 56 0 81 23 81 74 0 44 9 66 26 66 16 0 28 -60 20 -102 -8 -42 -51 -96 -78 -100 -29 -4 -36 -28 -8 -28 12 0 39 14 61 32 38 31 40 31 93 19 84 -19 88 -24 96 -132 4 -52 3 -107 -1 -124 -4 -16 -10 -105 -12 -197 l-5 -167 157 -3 c86 -2 301 -2 479 0 l322 3 0 148 c0 123 3 150 15 155 9 3 15 18 15 36 0 36 12 39 33 6 9 -13 22 -30 29 -37 43 -47 50 -61 56 -121 12 -107 7 -275 -7 -292 -12 -14 -59 -16 -389 -16 -228 0 -380 4 -387 10 -7 5 -86 11 -176 12 -91 1 -172 6 -181 12 -9 6 -20 7 -25 3 -6 -7 1 -27 43 -110 8 -16 14 -44 14 -62 0 -39 16 -54 33 -32 10 13 76 16 428 22 316 5 418 4 424 -5 4 -7 -4 -23 -19 -39 -14 -15 -26 -32 -26 -38 0 -6 -7 -16 -15 -23 -8 -7 -15 -21 -15 -31 0 -11 7 -19 15 -19 8 0 15 7 15 16 0 16 44 78 87 123 13 13 23 27 23 32 0 14 63 39 99 39 42 -1 76 -26 92 -66 l10 -29 17 22 c9 12 31 23 47 25 l30 3 1 75 c0 138 15 260 30 260 8 0 14 -5 14 -10 0 -6 34 -46 75 -89 74 -78 89 -106 60 -117 -8 -4 -15 -15 -15 -25 0 -10 -4 -19 -10 -19 -5 0 -10 -8 -10 -17 1 -17 1 -17 14 0 7 9 16 17 20 17 4 0 23 17 42 37 24 25 31 39 22 42 -7 2 -26 18 -42 35 -16 17 -90 96 -165 175 -220 232 -231 245 -231 260 0 6 -6 14 -13 18 -20 13 -90 110 -103 143 -3 8 -12 27 -20 42 -8 14 -14 35 -14 45 0 11 -7 28 -15 39 -17 22 -19 72 -5 109 8 21 7 27 -8 32 -21 8 -74 63 -168 173 -40 47 -102 114 -138 149 -36 36 -63 68 -60 72 8 14 67 39 91 39 26 0 118 -89 160 -155 14 -22 30 -44 37 -50 6 -5 29 -32 51 -60 22 -27 48 -59 58 -70 11 -11 30 -36 42 -56 13 -20 38 -42 57 -49 18 -8 82 -63 142 -122 60 -59 110 -108 111 -108 1 0 2 33 3 74 l1 74 -66 73 c-127 143 -138 156 -178 205 -66 81 -78 95 -123 143 -24 25 -55 68 -70 95 -15 27 -32 57 -38 68 -6 11 -29 28 -50 40 -22 11 -45 30 -53 41 -8 11 -22 27 -33 36 -10 8 -18 23 -18 32 0 10 -17 31 -38 48 l-39 30 -184 1 c-525 3 -963 0 -973 -7 -14 -10 -156 -7 -311 7 -122 12 -341 5 -350 -10 -3 -5 -18 -5 -33 -1 -15 4 -115 8 -222 10 -107 1 -232 4 -277 5 l-81 4 -64 -67z m1982 -28 c27 -20 53 -48 58 -62 9 -25 12 -26 93 -25 49 0 97 -5 116 -13 22 -9 60 -11 124 -8 85 5 94 4 115 -16 13 -13 24 -28 24 -35 0 -35 -100 -60 -127 -33 -7 7 -50 11 -116 10 -148 -3 -204 6 -211 33 -6 21 -7 21 -18 1 -16 -27 -70 -75 -85 -75 -18 0 -16 55 2 70 20 17 19 79 -2 102 -9 10 -28 18 -43 18 -43 0 -71 -29 -81 -84 -11 -58 -2 -79 18 -42 14 27 62 38 64 14 4 -35 -4 -92 -17 -116 -8 -15 -14 -34 -14 -42 -1 -29 -36 -63 -59 -57 -25 6 -28 -11 -3 -20 9 -4 22 -11 27 -15 6 -5 41 -29 78 -54 64 -42 69 -43 90 -29 12 8 39 15 61 15 50 0 101 -50 108 -107 6 -47 -2 -69 -41 -110 -28 -31 -34 -33 -95 -33 -62 0 -67 2 -101 37 -35 36 -44 66 -25 78 18 11 11 21 -36 54 -25 18 -54 42 -64 53 -20 22 -43 17 -33 -7 3 -9 -6 -39 -20 -68 -15 -28 -28 -60 -31 -70 -4 -13 -14 -17 -33 -15 -25 3 -28 8 -31 42 -2 22 2 42 8 46 6 4 14 26 17 49 4 26 13 47 26 56 17 12 18 17 7 30 -7 8 -19 15 -27 15 -14 0 -16 1 -73 51 -19 16 -45 34 -57 39 -20 8 -23 17 -23 65 0 42 3 55 15 55 43 0 -7 73 -58 85 -33 9 -77 -43 -77 -90 0 -43 17 -54 30 -21 10 27 17 30 44 20 22 -8 23 -126 1 -144 -8 -7 -15 -21 -15 -32 0 -25 -29 -68 -46 -68 -22 0 -54 38 -54 63 0 12 7 35 15 51 22 41 19 65 -10 76 -22 8 -25 16 -25 54 0 44 -12 67 -25 46 -9 -15 -97 -11 -119 5 -25 19 -115 19 -142 1 -17 -12 -95 -15 -425 -18 l-405 -3 -40 -41 c-21 -22 -73 -78 -114 -124 -98 -108 -150 -159 -172 -166 -10 -3 -18 -12 -18 -20 0 -12 6 -11 41 2 34 14 47 15 82 4 50 -14 67 -32 85 -83 11 -30 11 -41 2 -52 -18 -22 -40 -18 -40 6 0 28 -53 79 -83 79 -42 0 -74 -54 -61 -104 6 -26 6 -26 23 -5 13 17 21 19 42 10 15 -5 29 -17 32 -25 4 -10 19 -16 42 -16 19 0 35 -4 35 -9 0 -5 12 -14 28 -20 30 -12 59 -29 80 -48 7 -7 18 -13 23 -13 6 0 17 -7 26 -15 8 -8 19 -13 24 -9 13 7 1 24 -17 24 -18 0 -18 20 1 56 8 16 15 39 15 51 0 12 5 25 10 28 6 3 10 15 10 26 0 16 -5 18 -24 13 -23 -5 -25 -2 -31 41 -11 67 0 115 33 148 26 25 36 29 94 29 75 2 103 -14 131 -72 21 -45 21 -60 0 -75 -19 -14 -9 -35 17 -35 10 0 22 -5 25 -11 4 -5 17 -15 28 -20 12 -5 36 -18 52 -28 17 -11 37 -20 45 -20 9 0 6 5 -7 11 -27 13 -31 62 -8 92 8 11 15 27 15 37 0 9 7 19 15 23 8 3 15 11 15 18 0 12 34 48 45 48 3 0 14 -8 25 -17 24 -21 27 -79 5 -107 -8 -11 -15 -28 -15 -38 0 -10 -4 -18 -9 -18 -5 0 -14 -13 -20 -30 -5 -16 -15 -30 -20 -30 -24 0 -8 -20 42 -52 28 -18 57 -35 62 -38 6 -3 30 -18 53 -35 51 -36 55 -73 10 -89 -23 -8 -32 -6 -51 12 -31 29 -40 28 -54 -7 -9 -26 -16 -29 -64 -33 -37 -3 -57 0 -65 9 -6 7 -13 13 -16 13 -2 0 -15 -25 -29 -55 -19 -44 -28 -55 -45 -53 -13 2 -31 -9 -47 -27 -23 -26 -28 -28 -46 -17 -12 6 -26 12 -33 12 -7 0 -44 27 -83 60 -38 33 -76 60 -82 60 -18 0 -16 -19 2 -26 19 -8 19 -33 0 -58 -8 -11 -15 -27 -15 -37 0 -9 -7 -22 -15 -29 -24 -20 -17 -32 15 -25 l30 7 0 -54 c0 -47 -4 -58 -38 -95 -62 -70 -155 -69 -204 2 -33 48 -34 62 -8 70 29 9 25 20 -17 46 -21 13 -40 26 -43 29 -9 11 -59 40 -68 40 -5 0 -9 -18 -9 -39 0 -24 -7 -46 -17 -57 -23 -22 -16 -46 17 -62 25 -12 27 -18 27 -68 0 -47 -4 -59 -30 -87 -19 -21 -50 -40 -85 -51 -51 -16 -56 -16 -87 0 -59 30 -68 46 -68 124 0 68 1 70 25 70 21 0 25 5 25 29 0 17 -4 33 -10 36 -5 3 -10 15 -10 25 0 11 -6 34 -14 52 -8 18 -17 46 -21 61 -6 29 -25 28 -25 0 0 -26 -31 -53 -61 -53 -22 0 -29 5 -34 30 -9 42 4 112 24 127 9 7 11 13 5 13 -17 0 -50 32 -67 66 -15 29 -15 35 0 75 21 56 67 106 105 115 71 15 142 -25 154 -86 4 -19 11 -40 16 -46 5 -8 1 -13 -13 -17 -16 -4 -27 4 -52 39 -31 44 -39 48 -87 44 -40 -3 -50 -18 -50 -76 0 -60 14 -78 31 -40 15 32 39 40 72 25 17 -8 26 -19 24 -32 -1 -11 4 -22 11 -24 7 -3 12 4 12 16 0 29 15 26 63 -12 23 -18 57 -40 75 -50 27 -15 32 -16 32 -3 0 8 -6 16 -12 19 -10 3 -9 12 5 35 9 16 17 37 17 45 0 7 7 28 16 46 12 24 13 36 5 44 -7 7 -12 6 -17 -6 -19 -51 -53 18 -39 81 9 45 -7 45 -35 1 -29 -46 -42 -48 -78 -11 -15 16 -35 32 -44 35 -23 8 -23 30 -1 48 9 8 29 31 44 53 29 39 250 278 349 375 l55 55 305 3 c198 1 308 -1 316 -8 9 -7 19 -7 33 0 21 12 533 17 551 6 6 -3 10 -15 10 -26 0 -23 13 -25 31 -3 19 23 86 64 104 64 53 0 135 -76 135 -125 0 -20 -5 -25 -25 -25 -29 0 -33 -17 -7 -27 18 -7 19 -8 72 -50 49 -39 98 -73 106 -73 3 0 3 12 0 26 -5 17 1 40 15 69 l22 44 -24 20 c-13 11 -27 20 -31 21 -5 0 -8 25 -8 55 0 65 24 112 72 136 55 28 93 23 148 -18z m-248 -118 c11 -41 4 -55 -30 -55 -30 0 -52 30 -52 71 0 17 6 20 37 17 31 -3 38 -7 45 -33z m-890 -195 c27 -25 58 -71 58 -87 0 -22 -35 -14 -60 12 -27 29 -69 33 -105 9 -19 -13 -25 -25 -25 -54 0 -24 -5 -40 -15 -44 -8 -3 -15 -12 -15 -21 0 -8 -6 -15 -14 -15 -17 0 -46 43 -46 69 0 29 31 80 70 118 30 28 42 33 83 33 34 0 54 -6 69 -20z m-192 -715 c0 -46 -16 -81 -55 -120 -15 -15 -33 -20 -77 -20 -68 0 -108 29 -108 78 0 26 3 29 25 23 13 -3 36 -17 51 -31 15 -14 37 -25 50 -25 26 0 75 56 67 77 -7 19 17 63 34 63 9 0 13 -14 13 -45z m-441 -1854 c9 -6 10 -10 2 -16 -15 -8 -41 1 -41 15 0 12 20 13 39 1z"/> <path d="M1949 5944 c-16 -19 -16 -91 -1 -106 7 -7 14 -4 21 11 10 18 15 19 36 9 21 -9 25 -18 25 -52 0 -23 -7 -50 -15 -60 -8 -11 -15 -32 -15 -47 0 -14 -7 -32 -15 -39 -8 -7 -15 -21 -15 -32 0 -11 -9 -22 -20 -25 -11 -3 -20 -9 -20 -13 0 -9 191 -140 204 -140 5 0 6 10 3 22 -5 19 36 123 54 138 3 3 12 15 18 28 12 22 14 22 30 8 20 -18 41 -21 41 -6 0 5 -11 12 -25 16 -14 3 -25 10 -25 14 0 5 -10 12 -22 16 -12 3 -28 13 -36 20 -7 8 -20 14 -28 14 -8 0 -14 4 -14 9 0 5 -8 12 -18 15 -20 7 -46 48 -56 89 -5 23 -3 29 19 37 31 12 31 21 -1 59 -21 26 -33 31 -69 31 -27 0 -47 -6 -56 -16z"/> <path d="M3638 5913 c36 -14 -5 -73 -51 -73 -33 0 -35 -17 -4 -31 12 -5 33 -16 47 -24 31 -19 79 -11 103 17 41 48 -1 119 -70 117 -21 0 -32 -3 -25 -6z"/> <path d="M1496 5864 c-8 -21 -8 -24 3 -24 12 0 22 28 12 35 -5 3 -12 -2 -15 -11z"/> <path d="M1646 5674 c-3 -9 -6 -29 -6 -45 0 -16 -4 -29 -10 -29 -5 0 -12 -17 -16 -37 -3 -21 -15 -45 -26 -53 -23 -19 -16 -46 16 -57 13 -4 36 -18 52 -30 122 -95 151 -111 122 -64 -10 16 -10 23 0 33 6 6 12 19 12 27 0 30 35 90 53 91 9 0 17 4 17 9 0 8 -87 69 -115 80 -25 10 -75 55 -75 67 0 20 -17 26 -24 8z"/> <path d="M2290 5616 c0 -11 9 -16 26 -16 31 0 28 23 -4 28 -15 2 -22 -2 -22 -12z"/> <path d="M2366 5592 c-3 -6 -1 -14 5 -17 15 -10 25 3 12 16 -7 7 -13 7 -17 1z"/> <path d="M2276 5575 c-8 -23 -8 -35 3 -35 13 0 20 25 11 39 -5 10 -9 8 -14 -4z"/> <path d="M1217 5521 c-6 -25 9 -49 22 -36 11 11 4 55 -9 55 -4 0 -10 -9 -13 -19z"/> <path d="M1345 5527 c-4 -9 1 -40 10 -69 38 -114 43 -134 50 -170 10 -63 23 -42 24 39 1 58 5 79 16 86 23 13 18 21 -30 47 -25 14 -45 31 -45 40 0 8 -4 22 -10 30 -8 12 -10 12 -15 -3z"/> <path d="M1522 5498 c5 -15 28 -18 29 -3 0 6 -7 12 -17 13 -10 3 -15 -1 -12 -10z"/> <path d="M1790 5301 c0 -27 -40 -51 -62 -37 -28 17 -33 -2 -8 -29 49 -52 123 -41 134 20 8 43 -5 65 -40 65 -17 0 -24 -6 -24 -19z"/> <path d="M1434 5215 c13 -51 -39 -90 -63 -47 -14 25 -34 2 -26 -31 9 -35 28 -49 70 -50 43 -1 54 9 66 63 9 38 7 46 -12 66 -29 31 -43 30 -35 -1z"/> <path d="M2632 5769 c2 -7 10 -15 17 -17 8 -3 12 1 9 9 -2 7 -10 15 -17 17 -8 3 -12 -1 -9 -9z"/> <path d="M2669 5743 c-1 -4 0 -16 1 -26 1 -10 -8 -37 -20 -59 -18 -36 -19 -43 -7 -55 12 -12 21 -13 56 -2 37 11 43 10 55 -7 14 -18 15 -18 21 9 9 35 37 35 55 1 14 -25 57 -54 81 -54 7 0 27 11 45 25 28 22 32 30 32 70 -1 50 -16 70 -25 35 -5 -19 -11 -21 -44 -16 -32 5 -39 3 -44 -14 -8 -24 -53 -28 -61 -5 -4 8 -10 15 -15 15 -6 0 -15 5 -22 10 -44 37 -107 80 -108 73z"/> <path d="M4640 5530 c0 -11 5 -20 10 -20 6 0 15 -10 20 -22 11 -26 32 -60 41 -68 3 -3 38 -43 79 -90 40 -47 76 -86 81 -88 5 -2 9 -8 9 -13 0 -12 37 -49 50 -49 16 0 12 27 -5 34 -8 3 -15 12 -15 20 0 8 -6 19 -13 23 -7 4 -38 40 -68 79 -98 128 -170 214 -179 214 -6 0 -10 -9 -10 -20z"/> <path d="M4850 5503 c0 -14 50 -56 58 -49 4 4 -1 13 -11 20 -9 7 -17 18 -17 25 0 6 -7 11 -15 11 -8 0 -15 -3 -15 -7z"/> <path d="M4972 5349 c2 -7 10 -15 17 -17 8 -3 12 1 9 9 -2 7 -10 15 -17 17 -8 3 -12 -1 -9 -9z"/> <path d="M5030 5263 c0 -14 50 -56 58 -49 4 4 -1 13 -11 20 -9 7 -17 18 -17 25 0 6 -7 11 -15 11 -8 0 -15 -3 -15 -7z"/> <path d="M5220 5184 c0 -12 4 -14 13 -7 6 6 19 13 27 16 9 3 3 6 -12 6 -20 1 -28 -4 -28 -15z"/> <path d="M5281 5196 c9 -8 99 -13 99 -5 0 5 -23 9 -52 9 -28 0 -49 -2 -47 -4z"/> <path d="M3020 5146 c0 -13 5 -28 10 -31 6 -3 10 -14 10 -24 0 -10 7 -24 15 -31 8 -7 15 -21 15 -31 0 -10 9 -25 21 -33 12 -8 18 -19 14 -26 -4 -6 0 -19 8 -28 8 -9 18 -27 21 -39 4 -13 12 -23 17 -23 5 0 9 -11 9 -24 0 -13 7 -29 15 -36 8 -7 15 -18 15 -26 0 -7 6 -19 14 -26 7 -8 17 -24 20 -36 4 -12 12 -22 17 -22 5 0 9 -7 9 -15 0 -15 30 -63 58 -93 6 -7 12 -18 12 -24 0 -6 6 -19 14 -27 22 -26 30 -61 13 -61 -8 0 -17 -7 -21 -15 -8 -22 -143 -21 -175 1 -33 24 -47 5 -24 -33 55 -90 153 -160 137 -98 -5 21 -3 25 15 25 24 0 27 -10 9 -28 -10 -10 -10 -15 2 -22 11 -7 23 -1 44 23 32 34 51 36 78 7 9 -10 21 -20 27 -21 11 -5 -4 -66 -39 -159 -8 -19 -15 -67 -18 -106 -3 -64 -1 -74 20 -99 21 -24 29 -27 59 -21 56 10 70 48 85 246 5 58 3 68 -15 84 -21 19 -22 19 -36 0 -14 -19 -14 -19 -15 1 0 12 5 26 11 32 7 7 2 23 -18 54 -48 75 -53 83 -63 107 -5 12 -17 25 -25 28 -9 4 -13 13 -10 24 3 9 -1 23 -10 30 -8 7 -15 20 -15 30 0 10 -7 23 -15 30 -8 7 -15 20 -15 29 0 9 -5 22 -11 28 -12 12 -33 46 -48 80 -5 11 -15 24 -20 28 -6 3 -11 15 -11 26 0 11 -7 22 -15 25 -8 4 -15 15 -15 25 0 11 -7 22 -15 25 -8 4 -15 14 -15 24 0 11 -4 21 -9 24 -11 7 -51 88 -51 103 0 6 -7 16 -15 23 -8 7 -15 21 -15 31 0 9 -6 24 -14 31 -8 8 -15 23 -17 33 -6 29 -29 30 -29 1z"/> <path d="M3200 5116 c0 -13 7 -29 15 -36 8 -7 15 -21 15 -32 0 -10 8 -22 18 -26 9 -4 17 -18 17 -31 0 -34 18 -36 33 -4 16 35 15 43 -2 43 -8 0 -17 11 -20 24 -7 27 -53 86 -67 86 -5 0 -9 -11 -9 -24z"/> <path d="M5220 5093 c0 -14 -7 -35 -17 -45 -14 -16 -15 -22 -2 -46 7 -15 21 -38 31 -51 10 -13 18 -37 18 -52 0 -35 13 -37 34 -7 13 19 14 25 2 43 -7 11 -17 35 -21 53 -5 25 -11 32 -24 27 -16 -5 -17 1 -13 50 2 30 2 55 -2 55 -3 0 -6 -12 -6 -27z"/> <path d="M5152 5079 c2 -7 10 -15 17 -17 8 -3 12 1 9 9 -2 7 -10 15 -17 17 -8 3 -12 -1 -9 -9z"/> <path d="M3320 4971 c0 -11 -5 -21 -12 -23 -15 -5 11 -98 30 -105 6 -3 12 -13 12 -23 0 -10 7 -23 15 -30 8 -7 15 -20 15 -30 0 -10 7 -23 15 -30 8 -7 15 -21 15 -31 0 -10 4 -21 10 -24 5 -3 22 -31 36 -61 14 -30 30 -54 35 -54 15 0 10 64 -6 86 -8 10 -15 29 -15 41 0 12 -7 39 -16 60 -9 21 -22 52 -29 68 -33 82 -85 175 -97 175 -5 0 -8 -9 -8 -19z"/> <path d="M1976 4915 c-10 -27 -6 -88 9 -130 8 -22 15 -52 15 -67 0 -15 7 -33 15 -42 8 -8 15 -26 15 -40 0 -13 6 -31 14 -38 7 -8 17 -28 21 -46 3 -17 11 -34 16 -37 5 -4 9 -14 9 -24 0 -10 7 -24 15 -31 8 -7 15 -21 15 -32 0 -10 7 -21 15 -24 8 -4 15 -15 15 -25 0 -10 7 -19 15 -19 19 0 19 30 0 66 -8 16 -15 44 -15 62 0 18 -7 49 -15 69 -8 19 -15 47 -15 62 0 14 -7 39 -15 55 -8 15 -15 40 -15 55 0 15 -7 36 -15 47 -8 10 -15 30 -15 44 -1 32 -42 104 -62 108 -9 2 -18 -4 -22 -13z"/> <path d="M5427 4913 c-9 -14 34 -92 55 -98 12 -5 15 -14 11 -45 -4 -26 -2 -40 6 -40 6 0 11 9 11 20 0 11 7 23 15 26 8 4 15 12 15 20 0 20 -106 129 -113 117z"/> <path d="M5632 4899 c2 -7 10 -15 17 -17 8 -3 12 1 9 9 -2 7 -10 15 -17 17 -8 3 -12 -1 -9 -9z"/> <path d="M5283 4863 c-14 -30 -17 -72 -5 -89 4 -6 17 -16 30 -23 12 -6 22 -18 22 -25 0 -8 12 -21 26 -31 l27 -17 -7 33 c-4 19 -10 52 -14 73 -8 46 -26 57 -37 24 l-8 -23 -4 24 c-3 13 1 27 7 31 16 10 9 44 -10 48 -8 1 -21 -10 -27 -25z"/> <path d="M5660 4858 c0 -7 4 -19 9 -27 11 -17 25 3 17 24 -7 18 -26 20 -26 3z"/> <path d="M5694 4796 c-8 -22 4 -68 16 -61 13 8 13 62 0 70 -6 3 -13 -1 -16 -9z"/> <path d="M5538 4743 c-3 -15 -9 -36 -13 -45 -5 -13 -3 -18 9 -18 17 0 39 43 34 68 -5 27 -25 24 -30 -5z"/> <path d="M4915 4749 c-4 -6 -5 -13 -2 -16 7 -7 27 6 27 18 0 12 -17 12 -25 -2z"/> <path d="M5127 4753 c-4 -3 -7 -15 -7 -25 0 -10 -4 -18 -9 -18 -9 0 -51 -74 -51 -90 0 -6 7 -10 15 -10 8 0 15 9 15 20 0 11 7 23 15 26 8 3 17 14 20 25 4 12 16 19 31 19 29 0 31 20 6 43 -20 19 -26 20 -35 10z"/> <path d="M4563 4705 c0 -22 2 -30 4 -17 2 12 2 30 0 40 -3 9 -5 -1 -4 -23z"/> <path d="M666 4722 c-3 -4 4 -16 15 -26 20 -16 20 -16 17 5 -3 24 -22 36 -32 21z"/> <path d="M4885 4699 c-4 -11 -4 -23 -2 -26 9 -8 27 7 27 22 0 23 -18 27 -25 4z"/> <path d="M4160 4686 c0 -9 7 -16 16 -16 17 0 14 22 -4 28 -7 2 -12 -3 -12 -12z"/> <path d="M3594 4656 c-3 -9 -3 -28 1 -43 5 -21 8 -24 16 -12 12 19 11 56 -1 64 -6 3 -13 -1 -16 -9z"/> <path d="M4045 4659 c-4 -6 -5 -13 -2 -16 7 -7 27 6 27 18 0 12 -17 12 -25 -2z"/> <path d="M5727 4641 c-10 -47 -9 -91 2 -91 14 0 22 61 13 95 l-8 30 -7 -34z"/> <path d="M4856 4644 c-7 -18 0 -34 15 -34 12 0 12 37 0 44 -5 3 -12 -1 -15 -10z"/> <path d="M5577 4631 c-4 -19 -3 -39 2 -44 12 -12 18 13 11 48 l-6 30 -7 -34z"/> <path d="M4524 4613 c-3 -10 -12 -33 -20 -52 -13 -29 -13 -36 0 -56 11 -16 15 -45 13 -94 -1 -44 3 -75 10 -82 9 -9 13 -6 17 12 8 33 15 261 9 277 -7 18 -23 15 -29 -5z"/> <path d="M4685 4594 c-13 -28 -15 -50 -10 -110 4 -40 11 -72 15 -69 4 2 11 46 15 96 3 51 9 98 12 105 12 31 -16 11 -32 -22z"/> <path d="M547 4604 c-14 -14 -7 -25 13 -22 12 2 21 8 21 13 0 12 -24 18 -34 9z"/> <path d="M3985 4599 c-10 -15 3 -25 16 -12 7 7 7 13 1 17 -6 3 -14 1 -17 -5z"/> <path d="M5181 4598 c0 -7 4 -22 9 -33 7 -17 9 -15 9 13 1 17 -3 32 -9 32 -5 0 -10 -6 -9 -12z"/> <path d="M627 4593 c-3 -5 -5 -26 -4 -49 0 -30 -7 -47 -27 -68 -23 -26 -35 -56 -21 -56 5 0 31 27 65 67 13 15 13 113 1 113 -6 0 -12 -3 -14 -7z"/> <path d="M5034 4585 c-8 -19 2 -45 16 -45 5 0 10 14 10 30 0 31 -16 41 -26 15z"/> <path d="M5521 4585 c-1 -12 -6 -26 -12 -32 -15 -15 -3 -33 22 -33 25 0 36 27 16 43 -8 7 -17 19 -20 27 -4 10 -6 9 -6 -5z"/> <path d="M505 4571 c-6 -11 9 -23 19 -14 9 9 7 23 -3 23 -6 0 -12 -4 -16 -9z"/> <path d="M4825 4550 c-7 -23 2 -43 16 -35 12 8 12 42 0 50 -5 3 -12 -4 -16 -15z"/> <path d="M5304 4518 c4 -28 11 -59 17 -69 5 -10 9 -31 9 -48 0 -36 15 -41 24 -8 19 71 -6 177 -42 177 -12 0 -13 -11 -8 -52z"/> <path d="M4344 4545 c-8 -20 3 -48 16 -40 13 8 13 55 0 55 -6 0 -13 -7 -16 -15z"/> <path d="M3626 4532 c-4 -12 0 -45 8 -73 9 -29 16 -70 16 -91 0 -44 11 -48 34 -13 20 31 68 75 81 75 5 0 17 5 25 10 24 16 -6 30 -62 30 -61 0 -78 7 -78 34 0 11 -4 27 -9 35 -7 11 -10 9 -15 -7z"/> <path d="M3955 4540 c-3 -5 -2 -17 3 -26 8 -14 10 -14 15 5 5 22 -7 38 -18 21z"/> <path d="M4091 4500 c-28 -54 -30 -174 -3 -223 32 -58 54 -87 63 -81 5 3 9 31 10 62 0 31 4 66 8 76 11 29 2 64 -19 69 -24 6 -54 53 -46 73 6 15 8 15 26 -1 19 -18 20 -17 20 7 0 14 -8 33 -19 42 -18 16 -19 15 -40 -24z"/> <path d="M5696 4518 c-3 -13 -2 -26 3 -31 12 -12 32 18 25 37 -9 23 -21 20 -28 -6z"/> <path d="M5012 4497 c-20 -48 -15 -83 19 -116 28 -28 89 -46 74 -21 -3 6 -14 10 -23 10 -20 0 -38 37 -50 105 -9 50 -9 50 -20 22z"/> <path d="M4292 4378 c0 -68 -5 -143 -11 -168 -12 -53 -6 -62 34 -51 22 6 29 13 27 27 -1 10 -4 71 -6 134 -2 83 -8 125 -20 148 -9 17 -18 32 -20 32 -2 0 -4 -55 -4 -122z"/> <path d="M4470 4439 c0 -24 4 -38 10 -34 6 3 10 22 10 41 0 19 -4 34 -10 34 -5 0 -10 -18 -10 -41z"/> <path d="M3825 4460 c-4 -7 8 -25 28 -43 19 -18 38 -42 42 -54 3 -13 11 -23 16 -23 5 0 9 -17 9 -38 0 -21 5 -43 11 -49 20 -20 24 -196 6 -241 -21 -53 -26 -204 -8 -226 7 -9 20 -16 28 -16 18 0 52 39 53 61 0 9 7 22 15 29 8 7 15 23 15 35 0 12 7 28 15 35 8 7 15 18 15 24 0 7 9 29 20 51 28 55 26 83 -5 91 -30 7 -93 78 -102 114 -3 14 -13 36 -21 49 -12 17 -15 47 -14 118 2 95 2 95 -20 88 -29 -9 -47 -9 -74 0 -13 4 -25 2 -29 -5z"/> <path d="M5670 4461 c0 -12 -47 -61 -59 -61 -5 0 -16 -6 -23 -13 -22 -23 -68 -30 -74 -12 -8 21 -34 19 -34 -2 0 -28 16 -47 31 -37 8 5 24 7 35 6 12 -2 24 4 27 12 4 9 16 16 27 16 12 0 37 17 55 38 34 37 44 62 25 62 -5 0 -10 -4 -10 -9z"/> <path d="M4796 4442 c-4 -12 -3 -29 2 -38 9 -15 10 -15 16 4 4 12 3 29 -2 38 -9 15 -10 15 -16 -4z"/> <path d="M5155 4420 c-3 -11 -13 -20 -21 -20 -8 0 -14 -7 -14 -15 0 -8 7 -15 15 -15 8 0 15 7 15 15 0 8 4 15 9 15 13 0 22 28 11 35 -5 3 -11 -4 -15 -15z"/> <path d="M5275 4403 c-4 -16 -11 -35 -16 -43 -5 -8 -12 -23 -15 -32 -4 -10 -12 -18 -19 -18 -7 0 -15 -7 -19 -15 -3 -8 -12 -15 -19 -15 -8 0 -20 -7 -27 -15 -7 -8 -25 -15 -39 -15 -15 0 -35 -6 -46 -14 -17 -12 -17 -13 8 -20 31 -7 77 2 77 15 0 5 7 9 15 9 19 0 95 73 95 92 0 9 7 18 15 22 9 3 15 19 15 41 0 42 -17 47 -25 8z"/> <path d="M508 4359 c-21 -29 -38 -57 -38 -64 0 -7 -7 -15 -15 -19 -17 -6 -20 -32 -5 -41 6 -3 14 5 19 18 6 14 15 28 20 32 6 3 11 12 11 20 0 7 14 27 30 45 28 30 39 60 23 60 -5 0 -25 -23 -45 -51z"/> <path d="M4707 4346 c-8 -21 18 -39 48 -32 31 8 33 26 2 26 -13 0 -28 5 -34 11 -7 7 -12 6 -16 -5z"/> <path d="M2546 4331 c-4 -5 -3 -12 2 -15 14 -8 102 -2 99 8 -4 12 -94 18 -101 7z"/> <path d="M5307 4334 c-10 -11 -8 -64 2 -64 14 0 23 37 14 55 -5 9 -12 12 -16 9z"/> <path d="M327 4323 c-10 -10 -8 -43 2 -43 9 0 21 24 21 41 0 11 -14 12 -23 2z"/> <path d="M4872 4309 c-12 -11 -22 -26 -22 -34 0 -8 -15 -31 -34 -51 -32 -35 -37 -37 -97 -37 -48 0 -65 4 -75 17 -13 18 -34 14 -34 -5 0 -6 -16 -27 -35 -47 -19 -20 -35 -40 -35 -44 0 -5 -29 -8 -63 -8 -57 0 -65 -2 -75 -24 -11 -25 -85 -66 -118 -66 -11 0 -25 5 -31 11 -14 14 -33 3 -33 -20 0 -9 -7 -26 -15 -37 -8 -10 -15 -29 -15 -40 0 -12 -7 -27 -15 -34 -8 -7 -15 -20 -15 -30 0 -10 -7 -23 -15 -30 -8 -7 -15 -19 -15 -27 0 -7 -31 -45 -70 -83 -69 -69 -70 -70 -123 -70 -50 0 -57 3 -79 33 -14 17 -29 50 -33 72 -12 53 -10 176 4 250 5 33 15 95 22 138 11 77 11 78 -16 117 -15 22 -33 40 -39 40 -6 0 -21 -18 -33 -40 -19 -32 -23 -54 -23 -128 0 -50 6 -110 15 -138 23 -77 20 -92 -21 -109 -20 -8 -40 -15 -44 -15 -12 0 -28 43 -35 93 -8 57 -35 68 -35 13 0 -19 -7 -41 -15 -50 -8 -8 -15 -18 -15 -23 0 -9 -24 -26 -77 -55 -47 -26 -126 -24 -163 4 -17 12 -30 29 -30 38 0 9 -7 25 -15 36 -20 26 -20 184 0 223 17 34 12 41 -30 41 l-32 0 5 -80 c13 -228 -105 -420 -258 -420 -31 0 -97 23 -112 38 -16 16 -38 15 -38 -1 0 -15 -51 -65 -92 -90 -60 -37 -110 -14 -223 101 -32 33 -63 58 -67 56 -4 -3 -8 -39 -8 -80 0 -78 -9 -102 -59 -156 -13 -16 -32 -28 -42 -28 -9 0 -22 -7 -29 -15 -20 -24 -59 -18 -100 15 -46 37 -58 37 -66 4 -7 -29 -45 -74 -63 -74 -6 0 -11 -4 -11 -10 0 -5 9 -10 20 -10 11 0 20 4 20 9 0 18 46 25 195 28 83 2 170 6 195 9 113 14 846 17 907 3 25 -5 48 -7 51 -5 2 3 13 1 23 -5 16 -8 19 -22 19 -93 l0 -83 -42 -29 c-24 -15 -45 -30 -47 -31 -2 -2 -2 -6 1 -9 3 -3 23 4 44 15 62 33 100 28 146 -19 36 -39 50 -82 29 -94 -4 -3 -24 12 -44 34 -37 41 -57 47 -101 30 -24 -9 -26 -15 -26 -65 0 -42 3 -55 15 -55 8 0 15 6 15 13 0 8 9 22 20 32 25 22 66 13 76 -17 6 -20 8 -20 19 -5 7 9 16 17 20 17 12 0 159 -101 163 -111 2 -5 10 -9 18 -9 12 0 12 4 4 20 -8 15 -5 34 10 79 23 70 26 94 6 69 -18 -24 -21 -23 -45 18 -25 42 -27 84 -5 126 28 54 52 67 125 68 61 0 67 -2 98 -34 29 -30 33 -40 28 -70 -5 -31 -3 -36 21 -44 25 -9 50 -29 125 -99 15 -14 31 -22 35 -18 4 3 -1 12 -10 19 -26 19 -31 59 -14 101 21 48 20 55 -3 55 -27 0 -34 15 -34 76 0 36 6 60 17 72 9 10 16 23 16 29 0 21 71 45 120 41 42 -4 90 -33 90 -54 0 -4 6 -12 14 -18 8 -6 15 -22 16 -36 5 -67 -1 -88 -35 -123 -20 -21 -40 -37 -44 -37 -5 0 -11 14 -15 32 -5 24 -1 36 14 50 42 40 7 118 -54 118 -43 0 -66 -29 -66 -83 1 -37 2 -40 14 -24 17 22 53 22 65 -1 13 -25 11 -83 -5 -107 -6 -11 -15 -36 -19 -55 -4 -19 -18 -45 -32 -57 l-26 -21 29 -15 c16 -8 47 -31 69 -51 22 -20 45 -36 50 -36 20 -1 55 -39 55 -60 0 -14 -9 -24 -30 -31 -41 -15 -39 -26 14 -67 20 -15 36 -20 50 -16 70 22 77 143 8 144 -28 1 -72 30 -72 49 0 11 41 16 90 12 44 -4 87 -56 98 -120 l9 -56 2 56 c1 53 -17 111 -40 124 -14 9 -11 138 4 158 7 10 29 17 57 19 l45 3 0 -85 c0 -47 -1 -116 -2 -155 -1 -38 0 -205 3 -370 3 -179 1 -332 -5 -380 -6 -44 -11 -147 -12 -230 0 -144 -1 -151 -26 -187 -14 -21 -29 -38 -34 -38 -8 0 -71 -56 -170 -150 -20 -19 -60 -55 -89 -80 -29 -25 -71 -64 -95 -87 -23 -24 -45 -43 -49 -43 -8 0 -126 -89 -160 -122 -24 -22 -39 -28 -75 -28 -1025 -4 -2111 2 -2140 11 -20 7 -44 14 -53 18 -9 3 -77 65 -150 136 -73 72 -177 168 -231 214 -54 47 -96 89 -94 95 2 6 20 10 39 8 20 -2 39 1 43 7 13 21 33 10 101 -57 38 -38 89 -84 114 -103 53 -41 127 -107 151 -134 9 -11 28 -32 40 -48 l24 -27 731 0 c402 -1 735 -4 738 -8 4 -4 160 -7 346 -8 l339 -1 49 51 c26 29 88 86 137 128 50 42 118 104 151 139 77 81 167 164 222 207 l42 34 0 434 c0 369 -2 434 -14 434 -8 0 -21 -7 -30 -15 -9 -10 -34 -15 -68 -15 -58 0 -80 15 -112 77 -21 42 -20 64 4 70 26 7 25 21 -2 33 -13 6 -36 19 -53 30 -74 47 -119 64 -95 35 9 -11 7 -25 -14 -69 -33 -70 -34 -88 -2 -80 21 5 24 1 30 -29 9 -47 -2 -107 -23 -132 -26 -30 -79 -55 -118 -55 -45 0 -88 31 -113 83 -25 51 -25 67 -1 67 30 0 35 19 6 26 -14 3 -25 10 -25 14 0 13 -103 80 -113 73 -6 -4 -3 -11 6 -18 10 -7 17 -22 17 -33 0 -29 -57 -120 -79 -127 -10 -3 -24 -17 -31 -30 -16 -30 -56 -34 -77 -7 -13 15 -14 14 -9 -17 10 -56 32 -81 70 -81 42 0 66 26 66 72 0 47 26 71 46 43 24 -33 17 -78 -20 -121 -33 -38 -35 -39 -101 -39 -61 0 -69 3 -91 28 -32 37 -34 110 -4 142 20 21 19 55 -1 55 -4 0 -11 16 -15 35 -3 19 -10 38 -15 41 -5 3 -9 16 -9 28 0 13 -7 46 -14 72 -8 27 -18 62 -21 78 -5 22 -9 26 -18 17 -17 -17 -62 -13 -79 7 -8 9 -18 29 -22 45 -8 36 -26 35 -26 -2 0 -34 50 -91 80 -91 28 0 41 -25 38 -71 -2 -31 -9 -47 -28 -60 -33 -24 -110 -29 -120 -9 -16 30 -28 125 -18 137 11 13 16 349 5 359 -3 3 -198 6 -432 5 -287 -1 -432 2 -446 9 -33 18 -225 25 -244 10 -12 -10 -19 -10 -27 -2 -8 8 -53 12 -124 12 -67 0 -115 4 -119 10 -7 12 33 49 53 50 22 0 13 20 -14 30 -31 12 -44 6 -45 -23 0 -12 -14 -33 -31 -46 -39 -31 -113 -32 -163 -1 l-34 21 -15 -33 c-20 -44 -40 -68 -57 -68 -8 0 -24 -6 -35 -14 -18 -13 -26 -13 -60 -1 -21 8 -46 14 -54 15 -13 0 -45 37 -70 80 -7 11 -12 12 -20 4 -7 -7 -5 -18 10 -36 11 -15 20 -31 20 -37 0 -6 9 -11 19 -11 10 0 21 -7 25 -15 3 -10 19 -15 45 -15 22 0 41 -5 44 -12 4 -10 7 -10 18 0 18 17 81 15 105 -3 10 -8 37 -24 59 -35 22 -12 57 -30 78 -41 32 -16 42 -18 54 -7 10 8 45 12 101 11 48 -1 182 -1 297 -1 823 3 885 1 906 -21 16 -17 19 -30 14 -64 -3 -23 -5 -46 -5 -52 1 -5 3 -60 6 -121 4 -92 2 -113 -11 -124 -20 -17 -21 -128 0 -156 19 -26 22 -348 3 -361 -20 -12 -750 -14 -765 -1 -9 7 -12 38 -9 109 3 54 7 102 10 108 8 12 -2 41 -22 63 -14 17 -13 77 4 208 10 85 46 80 -521 80 -275 1 -529 5 -565 10 -36 5 -113 12 -172 16 -83 5 -108 9 -108 20 0 8 5 14 10 14 6 0 15 11 20 25 5 14 13 25 17 25 14 0 83 147 83 175 0 8 -9 15 -20 15 -17 0 -20 -6 -18 -36 1 -25 -3 -39 -15 -45 -9 -6 -17 -18 -17 -28 0 -10 -7 -24 -15 -31 -8 -7 -15 -16 -15 -20 0 -8 -29 -46 -61 -79 -47 -49 -118 -91 -154 -91 -35 0 -55 -10 -55 -27 0 -22 86 -12 104 12 24 33 46 11 46 -44 0 -32 5 -51 14 -54 11 -4 13 -28 10 -114 -11 -258 -12 -397 -4 -417 5 -15 0 -36 -16 -71 -22 -44 -23 -50 -8 -58 13 -7 15 -18 9 -54 -5 -33 -2 -51 10 -69 12 -19 16 -45 14 -105 -3 -91 -15 -72 111 -179 163 -139 260 -228 296 -272 13 -15 100 -95 170 -155 27 -23 67 -58 89 -78 22 -19 47 -35 55 -34 8 1 22 -1 30 -4 8 -4 191 -5 405 -1 394 5 704 7 805 5 30 -1 216 1 414 4 227 4 381 3 420 -4 33 -5 105 -11 158 -13 l97 -3 59 58 c33 31 63 57 67 57 4 0 24 15 45 33 39 34 104 89 180 152 24 20 61 54 81 74 33 35 118 108 214 184 22 18 63 55 92 82 l53 50 3 675 c4 685 7 737 42 763 6 5 4 12 -7 21 -24 18 -23 41 4 65 21 20 21 21 3 41 -16 18 -17 33 -12 142 6 131 2 178 -17 178 -6 0 -17 -9 -24 -20 -15 -24 -52 -27 -52 -4 0 8 14 27 30 41 31 26 32 43 1 43 -30 0 -329 308 -314 324 3 3 19 6 33 6 29 0 92 50 103 83 5 12 14 16 29 13 13 -3 49 -7 81 -10 55 -6 59 -5 92 29 19 19 35 38 35 44 0 5 12 16 26 26 24 16 28 16 36 2 17 -32 41 -48 65 -45 34 4 33 21 -3 33 -41 13 -64 33 -64 56 0 27 -15 31 -38 8z m-480 -366 c23 -21 94 -91 160 -155 l118 -117 0 -203 c-1 -234 -2 -238 -74 -238 l-46 0 0 205 c0 181 -2 207 -17 224 -31 34 -43 50 -43 57 0 4 -27 33 -59 65 -33 32 -67 73 -76 92 -9 19 -29 48 -45 64 -33 34 -30 43 12 43 20 0 43 -12 70 -37z m-898 -1479 c-2 -327 -5 -418 -17 -430 -2 -2 -247 -4 -543 -3 -296 0 -572 0 -612 -1 -67 -1 -74 1 -79 19 -6 24 -21 27 -29 6 -11 -27 -73 -55 -123 -55 -42 0 -52 5 -84 37 -42 41 -48 78 -16 88 19 6 16 10 -26 35 -28 16 -53 40 -60 57 l-12 28 -8 -30 c-3 -16 -18 -51 -31 -76 -31 -60 -31 -71 1 -63 24 6 25 5 25 -49 0 -101 -47 -150 -144 -151 -50 -1 -67 3 -93 23 -27 20 -33 32 -33 63 0 27 4 38 15 38 30 0 14 20 -34 42 -33 15 -56 35 -70 58 l-20 34 -6 -29 c-4 -17 -20 -56 -36 -89 l-30 -59 31 -26 31 -26 -17 -35 c-31 -63 -84 -103 -150 -113 -37 -6 -44 -4 -80 32 -22 21 -52 41 -66 44 -52 13 -59 30 -56 136 3 94 4 96 28 99 37 5 43 16 34 64 l-7 43 -9 -33 c-19 -70 -68 -44 -68 35 0 46 2 48 30 33 22 -12 31 5 19 38 -6 17 -16 22 -41 22 -48 0 -83 53 -76 114 5 44 34 95 54 96 6 0 17 7 24 15 18 22 119 20 145 -3 26 -22 55 -67 55 -85 0 -8 -10 -17 -22 -21 -23 -6 -23 -6 7 -31 17 -13 38 -24 48 -25 9 0 17 -4 17 -9 0 -5 15 -19 34 -32 19 -13 37 -32 40 -42 8 -31 26 -9 26 31 0 20 7 46 15 56 21 28 19 33 -15 51 -27 14 -30 20 -29 63 1 56 41 130 82 150 48 24 18 32 -106 31 -159 -2 -157 -1 -157 -50 l0 -40 -72 3 -73 3 0 90 c1 71 5 96 19 118 l19 29 261 -3 c144 -1 308 -1 365 0 87 3 105 1 113 -13 6 -11 23 -16 59 -16 36 0 58 -6 77 -21 32 -24 43 -8 16 22 -32 36 9 43 126 22 19 -4 43 -8 53 -9 38 -3 42 -20 39 -162 -3 -146 -10 -167 -57 -160 -17 3 -21 14 -28 83 -10 88 -18 105 -53 105 -17 0 -24 6 -24 19 0 11 -3 26 -6 35 -13 34 -20 13 -20 -56 1 -63 -2 -76 -21 -95 -13 -13 -32 -23 -42 -23 -20 0 -31 -18 -31 -54 0 -12 -4 -26 -9 -32 -11 -12 -41 -108 -41 -131 1 -17 1 -17 11 0 12 20 23 22 41 5 19 -19 105 -78 112 -78 3 0 6 11 6 25 0 22 4 25 39 25 25 0 41 -5 45 -15 3 -8 11 -15 18 -15 21 -1 45 -42 53 -95 5 -30 10 -41 12 -28 6 34 22 41 118 48 166 12 609 14 623 3 8 -7 25 -7 56 2 45 12 196 9 261 -6 27 -7 29 -6 16 9 -10 13 -12 35 -6 99 7 76 8 123 5 293 -1 77 13 216 23 233 5 6 27 12 50 12 23 0 49 5 57 10 8 5 20 8 25 6 6 -2 10 -130 9 -362z m-1240 -114 c-5 -50 -3 -74 6 -85 20 -24 -25 -20 -61 6 -25 18 -29 27 -29 69 0 71 6 80 51 80 l39 0 -6 -70z"/> <path d="M1850 2734 c0 -17 22 -14 28 4 2 7 -3 12 -12 12 -9 0 -16 -7 -16 -16z"/> <path d="M1912 2687 c-30 -14 -46 -67 -31 -101 15 -32 33 -33 54 -4 13 19 18 21 35 10 47 -29 70 4 40 60 -19 36 -61 51 -98 35z"/> <path d="M1570 2641 c0 -7 21 -21 46 -31 61 -26 86 -56 80 -96 -5 -39 -1 -45 64 -94 30 -22 59 -53 66 -68 l11 -27 7 30 c4 17 11 38 17 47 15 30 39 102 39 122 0 19 0 19 -14 1 -8 -11 -19 -16 -29 -12 -22 8 -57 66 -57 94 0 20 -6 22 -87 26 -49 2 -100 8 -115 12 -19 5 -28 4 -28 -4z"/> <path d="M1555 2543 c-27 -6 -45 -31 -45 -64 0 -26 2 -27 44 -26 24 1 48 -1 52 -5 13 -14 7 -88 -10 -106 -9 -10 -16 -26 -16 -35 0 -9 -4 -17 -10 -17 -5 0 -13 -18 -16 -40 -4 -22 -11 -43 -15 -46 -5 -3 -9 -15 -9 -27 1 -22 1 -22 12 -2 6 11 12 21 14 23 5 7 60 -27 94 -58 19 -17 45 -38 58 -47 38 -26 25 -93 -19 -93 -25 0 -34 -19 -12 -27 10 -3 22 -12 26 -20 4 -7 25 -13 46 -13 50 0 71 24 71 79 0 40 -2 43 -22 38 -14 -4 -29 0 -40 10 -20 18 -22 35 -9 61 35 67 61 126 61 137 0 7 -9 11 -22 8 -16 -2 -37 9 -68 37 -25 22 -53 42 -62 46 -19 6 -20 9 -23 59 -1 17 -5 37 -9 46 -5 13 0 18 25 23 l32 6 -44 30 c-45 30 -49 31 -84 23z"/> <path d="M1123 2435 c-27 -19 -37 -61 -22 -97 14 -35 20 -35 47 2 25 34 47 38 74 13 21 -19 26 -16 33 23 5 26 2 31 -34 52 -47 26 -69 28 -98 7z"/> <path d="M1494 2416 c-8 -22 3 -33 18 -18 9 9 9 15 0 24 -9 9 -13 7 -18 -6z"/> <path d="M1250 2308 c0 -7 4 -19 9 -27 11 -17 25 3 17 24 -7 18 -26 20 -26 3z"/> <path d="M1280 2212 c0 -16 7 -37 15 -48 8 -10 15 -29 15 -42 0 -12 7 -39 16 -60 9 -20 17 -48 18 -61 2 -42 24 -35 22 7 0 34 17 90 45 144 5 10 9 25 9 34 0 16 -1 16 -18 1 -20 -18 -31 -13 -83 36 -27 24 -39 21 -39 -11z"/> <path d="M2110 2185 c9 -11 8 -19 -7 -39 -10 -14 -25 -26 -34 -26 -27 0 -30 -13 -7 -37 44 -47 118 -16 118 50 0 39 -25 67 -60 67 -18 0 -20 -3 -10 -15z"/> <path d="M1195 2037 c-4 -10 -3 -23 4 -30 16 -16 26 0 14 25 -10 21 -11 22 -18 5z"/> <path d="M1211 1959 c-12 -19 -21 -37 -21 -41 0 -14 21 -8 26 7 4 8 12 15 20 15 16 0 18 18 5 39 -7 11 -14 7 -30 -20z"/> <path d="M1365 1910 c-36 -38 -82 -42 -87 -7 -2 12 -7 21 -13 20 -16 -3 -17 -20 0 -36 8 -9 15 -20 15 -26 0 -20 33 -41 65 -41 41 0 75 41 75 89 0 40 -18 40 -55 1z"/> <path d="M3035 4313 c-44 -9 -45 -12 -16 -43 25 -28 29 -41 34 -117 7 -98 0 -169 -19 -198 -8 -11 -14 -26 -14 -34 0 -8 -18 -36 -40 -62 -40 -48 -40 -48 -19 -60 33 -17 109 -4 128 24 45 63 51 89 51 207 0 87 -4 121 -15 136 -8 10 -15 31 -15 46 0 18 -9 33 -24 43 -17 11 -22 22 -18 40 4 25 3 26 -33 18z"/> <path d="M2466 4278 c-29 -31 -55 -36 -141 -25 -15 1 -21 -5 -23 -26 -3 -21 5 -36 33 -63 20 -19 42 -33 49 -31 7 3 20 20 29 39 9 19 28 46 42 62 14 15 25 31 25 35 0 5 9 11 21 14 12 3 18 10 14 16 -9 16 -17 13 -49 -21z"/> <path d="M5460 4270 c0 -16 5 -30 10 -30 6 0 10 14 10 30 0 17 -4 30 -10 30 -5 0 -10 -13 -10 -30z"/> <path d="M2690 4273 c0 -5 7 -17 15 -27 20 -27 19 -119 -1 -159 -17 -34 -61 -76 -80 -77 -6 0 -17 -7 -24 -15 -7 -9 -35 -15 -73 -17 -35 -2 -62 -8 -64 -15 -6 -16 159 -177 205 -201 l37 -19 38 29 c40 32 45 49 22 68 -12 10 -15 36 -15 115 0 104 18 192 47 226 7 8 13 21 13 27 0 7 5 12 10 12 6 0 10 6 10 13 0 9 -16 13 -51 13 -38 0 -54 5 -61 17 -9 17 -28 24 -28 10z"/> <path d="M4478 4266 c-19 -14 -24 -41 -9 -50 5 -3 16 5 25 19 27 41 19 58 -16 31z"/> <path d="M294 4255 c-7 -17 4 -37 17 -30 12 8 12 45 -1 45 -6 0 -13 -7 -16 -15z"/> <path d="M5250 4215 c-14 -25 -28 -45 -32 -45 -5 0 -8 -7 -8 -15 0 -8 -4 -15 -9 -15 -11 0 -44 -50 -38 -57 8 -7 107 97 107 112 0 7 7 15 15 19 18 7 20 46 2 46 -7 0 -23 -20 -37 -45z"/> <path d="M415 4210 c-7 -23 2 -43 16 -35 12 8 12 55 0 55 -5 0 -12 -9 -16 -20z"/> <path d="M5430 4194 c0 -14 4 -23 10 -19 6 3 10 15 10 26 0 10 -4 19 -10 19 -5 0 -10 -12 -10 -26z"/> <path d="M2548 4151 c-57 -59 -48 -88 19 -59 45 19 63 39 63 70 0 41 -36 37 -82 -11z"/> <path d="M2907 4163 c-33 -54 -52 -273 -24 -273 7 0 19 15 26 33 56 135 62 171 34 218 -17 29 -28 35 -36 22z"/> <path d="M390 4130 c0 -16 5 -30 10 -30 6 0 10 14 10 30 0 17 -4 30 -10 30 -5 0 -10 -13 -10 -30z"/> <path d="M5383 4136 c-13 -13 -23 -28 -23 -34 0 -6 -5 -12 -11 -14 -6 -2 -9 -13 -7 -23 5 -19 5 -19 13 -1 5 10 21 31 37 46 27 26 37 50 21 50 -5 0 -18 -11 -30 -24z"/> <path d="M236 4102 c-4 -12 -3 -29 2 -38 9 -15 10 -15 16 4 4 12 3 29 -2 38 -9 15 -10 15 -16 -4z"/> <path d="M356 4028 c-8 -32 -6 -269 3 -292 13 -35 20 6 20 119 0 58 3 110 6 115 8 13 -5 80 -15 80 -4 0 -10 -10 -14 -22z"/> <path d="M2023 3968 c-48 -106 -69 -278 -39 -323 9 -13 16 -30 16 -38 0 -19 20 -36 36 -30 7 3 23 20 34 38 17 28 20 51 21 157 1 68 -3 133 -8 144 -6 10 -13 36 -17 57 -4 20 -11 37 -16 37 -4 0 -17 -19 -27 -42z"/> <path d="M5065 3999 c-4 -6 -5 -13 -2 -16 7 -7 27 6 27 18 0 12 -17 12 -25 -2z"/> <path d="M5233 3956 c-27 -28 -29 -36 -8 -36 8 0 15 7 15 15 0 8 7 15 15 15 8 0 15 7 15 15 0 21 -11 18 -37 -9z"/> <path d="M213 3920 c0 -30 2 -43 4 -27 2 15 2 39 0 55 -2 15 -4 2 -4 -28z"/> <path d="M1646 3928 c-46 -143 -45 -231 1 -249 24 -9 25 -10 8 -23 -18 -13 -15 -46 4 -46 34 0 56 233 27 289 -19 36 -35 47 -40 29z"/> <path d="M5050 3794 c-17 -17 -20 -24 -10 -24 8 0 26 12 39 25 31 33 5 32 -29 -1z"/> <path d="M4855 3789 c-4 -6 -4 -13 -1 -16 8 -8 36 5 36 17 0 13 -27 13 -35 -1z"/> <path d="M235 3767 c-9 -33 2 -80 15 -72 13 8 13 65 1 84 -8 12 -11 9 -16 -12z"/> <path d="M4907 3743 c-24 -30 -21 -34 23 -23 19 4 29 8 23 9 -7 1 -13 7 -13 15 0 25 -14 25 -33 -1z"/> <path d="M4980 3750 c0 -5 11 -10 25 -10 14 0 25 5 25 10 0 6 -11 10 -25 10 -14 0 -25 -4 -25 -10z"/> <path d="M867 3736 c-3 -8 -2 -18 3 -21 13 -8 20 9 11 24 -6 10 -10 9 -14 -3z"/> <path d="M1402 3731 c2 -7 7 -12 11 -12 12 1 9 15 -3 20 -7 2 -11 -2 -8 -8z"/> <path d="M380 3672 c0 -21 29 -52 48 -52 7 0 12 5 12 10 0 6 -5 10 -10 10 -6 0 -15 11 -20 25 -11 29 -30 33 -30 7z"/> <path d="M865 3680 c-7 -12 2 -30 16 -30 12 0 12 27 0 35 -5 3 -12 1 -16 -5z"/> <path d="M1146 3664 c-15 -14 -14 -19 13 -52 15 -21 31 -47 35 -59 4 -13 12 -23 17 -23 18 0 9 44 -17 77 -22 29 -23 33 -7 33 24 0 135 -95 147 -126 12 -29 36 -32 36 -4 0 45 -62 140 -91 140 -9 0 -22 7 -29 15 -17 20 -84 19 -104 -1z"/> <path d="M1482 3660 c-31 -25 -32 -18 26 -151 28 -62 80 -84 97 -41 4 11 -3 23 -19 35 -28 20 -66 96 -66 131 0 37 -13 46 -38 26z"/> <path d="M260 3643 c0 -10 4 -24 9 -32 12 -19 24 3 16 29 -8 25 -25 26 -25 3z"/> <path d="M897 3644 c-10 -11 3 -24 24 -24 23 0 25 15 3 24 -19 7 -19 7 -27 0z"/> <path d="M460 3600 c19 -13 30 -13 30 0 0 6 -10 10 -22 10 -19 0 -20 -2 -8 -10z"/> <path d="M950 3600 c0 -5 9 -10 20 -10 11 0 20 5 20 10 0 6 -9 10 -20 10 -11 0 -20 -4 -20 -10z"/> <path d="M290 3575 c0 -7 6 -18 13 -22 8 -4 16 -16 20 -25 9 -25 26 -23 20 2 -3 11 -9 20 -13 20 -4 0 -10 9 -13 20 -6 23 -27 27 -27 5z"/> <path d="M515 3581 c-3 -5 4 -13 16 -16 23 -8 34 -1 24 14 -8 13 -32 14 -40 2z"/> <path d="M1006 3583 c-3 -4 10 -22 29 -40 19 -18 35 -39 35 -47 0 -8 5 -18 10 -21 6 -4 10 5 10 19 0 14 -4 26 -10 26 -5 0 -10 6 -10 13 0 16 -55 59 -64 50z"/> <path d="M585 3550 c-8 -13 20 -24 42 -16 15 6 15 8 3 16 -20 13 -37 12 -45 0z"/> <path d="M670 3521 c0 -17 20 -23 48 -16 20 5 23 8 11 16 -19 12 -59 12 -59 0z"/> <path d="M1226 3504 c-4 -10 -2 -22 3 -27 7 -7 13 -5 17 7 4 10 2 22 -3 27 -7 7 -13 5 -17 -7z"/> <path d="M772 3488 c5 -15 48 -18 48 -3 0 6 -11 11 -26 13 -18 3 -25 0 -22 -10z"/> <path d="M394 3465 c15 -14 38 -25 52 -25 34 0 26 24 -9 28 -15 2 -27 8 -27 13 0 5 -10 9 -21 9 -21 0 -21 -1 5 -25z"/> <path d="M1370 3456 c0 -14 5 -28 10 -31 6 -4 10 7 10 24 0 17 -4 31 -10 31 -5 0 -10 -11 -10 -24z"/> <path d="M1100 3445 c0 -14 4 -25 9 -25 12 0 19 21 13 38 -8 21 -22 13 -22 -13z"/> <path d="M492 3433 c-23 -9 -1 -23 39 -23 42 0 53 14 17 24 -26 7 -38 7 -56 -1z"/> <path d="M602 3403 c-22 -9 -2 -23 34 -23 35 0 46 13 18 24 -18 7 -33 7 -52 -1z"/> <path d="M1256 3342 c-6 -49 -5 -77 2 -84 17 -17 24 32 15 98 l-9 59 -8 -73z"/> <path d="M697 3373 c-15 -14 -6 -23 23 -23 32 0 40 14 14 24 -20 8 -29 8 -37 -1z"/> <path d="M1130 3349 c0 -18 -4 -20 -25 -15 l-26 7 16 -32 c14 -27 19 -29 31 -18 18 19 30 79 15 79 -6 0 -11 -9 -11 -21z"/> <path d="M765 3340 c-3 -6 2 -13 12 -17 10 -3 37 -14 60 -24 23 -11 47 -19 53 -19 6 0 8 -4 5 -10 -3 -5 -27 -10 -51 -10 -32 0 -44 -4 -41 -12 4 -13 51 -14 115 -3 23 4 32 11 32 25 0 13 -7 20 -19 20 -10 0 -24 7 -31 15 -7 8 -21 15 -32 15 -11 0 -26 7 -34 15 -17 17 -60 20 -69 5z"/> <path d="M3883 3320 c-27 -11 -39 -53 -24 -86 9 -21 13 -23 31 -12 15 10 22 10 32 0 16 -16 28 -15 28 3 0 8 14 24 30 34 l30 18 -38 27 c-40 28 -54 30 -89 16z"/> <path d="M1217 3218 c-28 -31 -34 -48 -18 -48 14 0 61 45 61 58 0 23 -18 20 -43 -10z"/> <path d="M740 3220 c0 -5 9 -10 20 -10 11 0 20 5 20 10 0 6 -9 10 -20 10 -11 0 -20 -4 -20 -10z"/> <path d="M3385 3200 c-9 -27 6 -50 16 -24 4 10 8 25 8 32 1 20 -17 14 -24 -8z"/> <path d="M3936 3146 c-9 -19 -16 -45 -16 -58 0 -42 -38 -108 -62 -108 -15 0 -3 -12 42 -42 34 -23 76 -55 92 -70 17 -16 34 -28 40 -28 5 0 8 -15 6 -32 -2 -27 -7 -33 -25 -33 -35 0 -32 -15 10 -48 37 -30 38 -30 72 -14 26 13 35 24 41 52 9 49 -10 69 -34 37 -19 -24 -32 -20 -32 9 0 10 -6 22 -14 26 -18 10 -32 63 -17 63 6 0 25 30 41 66 25 55 34 65 50 61 26 -7 37 11 13 20 -10 4 -20 9 -23 12 -3 3 -21 17 -40 31 -38 26 -40 28 -86 65 -18 14 -34 25 -37 25 -3 0 -12 -15 -21 -34z m44 -22 c0 -17 -22 -14 -28 4 -2 7 3 12 12 12 9 0 16 -7 16 -16z"/> <path d="M597 3105 c-39 -36 -47 -55 -22 -55 8 0 15 7 15 15 0 8 4 15 9 15 10 0 45 50 39 55 -2 2 -20 -11 -41 -30z"/> <path d="M893 3133 c-28 -11 -11 -23 32 -23 38 0 45 -3 45 -19 0 -25 -104 -101 -136 -101 -13 0 -27 -6 -31 -14 -4 -8 -21 -16 -38 -18 -26 -4 -27 -5 -11 -13 11 -5 26 -4 37 3 10 7 35 12 54 12 22 0 38 6 41 15 4 8 11 15 18 15 15 1 66 46 66 59 0 6 9 15 20 21 13 7 20 21 20 40 0 30 -1 30 -52 29 -29 0 -59 -3 -65 -6z"/> <path d="M813 3103 c-24 -9 -13 -23 17 -23 32 0 40 14 14 24 -9 3 -16 6 -17 5 -1 0 -8 -3 -14 -6z"/> <path d="M718 3042 c-41 -40 -52 -86 -20 -80 9 2 19 14 20 27 4 26 38 60 60 61 18 0 10 24 -9 27 -8 2 -31 -14 -51 -35z"/> <path d="M3630 3022 c0 -10 4 -22 8 -27 7 -9 16 -36 52 -157 14 -45 38 -50 46 -9 3 15 18 41 32 56 l25 28 -29 21 c-16 12 -53 40 -81 64 -42 33 -53 38 -53 24z"/> <path d="M540 2889 c0 -20 21 -49 35 -49 20 0 19 5 -10 34 -14 14 -25 20 -25 15z"/> <path d="M605 2820 c3 -5 17 -10 31 -10 13 0 24 5 24 10 0 6 -14 10 -31 10 -17 0 -28 -4 -24 -10z"/> <path d="M4556 2814 c-4 -9 -4 -19 -2 -21 8 -8 26 8 26 23 0 19 -16 18 -24 -2z"/> <path d="M725 2800 c-18 -7 -19 -8 -2 -15 22 -9 70 3 62 15 -7 12 -32 12 -60 0z"/> </g> </svg> 