<?xml version="1.0" standalone="no"?>
<!DOCTYPE svg PUBLIC "-//W3C//DTD SVG 20010904//EN"
 "http://www.w3.org/TR/2001/REC-SVG-20010904/DTD/svg10.dtd">
<svg version="1.0" xmlns="http://www.w3.org/2000/svg"
 width="300.000000pt" height="160.000000pt" viewBox="0 0 300.000000 160.000000"
 preserveAspectRatio="xMidYMid meet">
<metadata>
Created by potrace 1.10, written by Peter Selinger 2001-2011
</metadata>
<g transform="translate(0.000000,160.000000) scale(0.100000,-0.100000)"
fill="#000000" stroke="none">
<path d="M1561 1277 c-13 -6 -33 -24 -45 -40 -18 -25 -19 -32 -8 -72 10 -38 9
-53 -6 -97 -16 -51 -18 -53 -50 -50 -43 4 -92 -42 -92 -87 0 -36 -95 -189
-148 -239 l-35 -33 34 -35 c28 -30 31 -37 19 -44 -9 -5 -43 -30 -75 -55 -33
-26 -84 -62 -112 -81 -62 -39 -69 -69 -27 -110 21 -22 31 -25 62 -19 20 3 46
13 57 21 58 42 164 109 245 155 l91 51 92 -32 c97 -33 194 -89 264 -154 41
-36 45 -38 73 -26 36 15 110 84 110 103 0 24 -44 54 -90 61 -28 4 -59 19 -85
40 -22 18 -68 52 -103 75 -34 23 -78 56 -97 73 -31 27 -35 35 -35 82 0 28 -4
65 -9 82 -12 43 37 260 67 299 37 47 22 103 -35 134 -27 14 -32 14 -62 -2z
m69 -47 c11 -11 20 -27 20 -35 0 -16 -34 -55 -49 -55 -5 0 -11 -24 -14 -52 -4
-49 -11 -77 -39 -179 -8 -27 -6 -44 7 -75 12 -28 15 -53 10 -91 -5 -39 -3 -53
8 -60 8 -4 16 -13 18 -19 2 -7 51 -43 109 -82 58 -39 120 -85 138 -103 25 -24
36 -29 44 -21 7 7 19 12 27 12 11 0 10 -4 -5 -16 -18 -14 -16 -15 29 -10 61 7
59 -5 -10 -56 l-51 -37 -26 39 c-14 22 -31 40 -36 40 -5 0 -42 23 -82 50 -40
28 -78 50 -85 50 -6 0 -47 14 -90 30 l-78 30 -70 -37 c-38 -20 -103 -58 -144
-85 -41 -26 -78 -48 -83 -48 -5 0 -21 -13 -37 -29 -37 -38 -91 -48 -115 -22
-19 21 -15 26 32 36 23 5 34 14 38 32 4 16 9 21 14 13 5 -8 24 3 59 34 28 25
70 55 92 66 22 12 58 39 79 60 22 22 45 40 50 40 6 0 10 11 10 25 0 13 7 28
16 33 17 10 15 41 -6 72 -15 24 -101 -76 -97 -112 3 -20 -1 -28 -12 -29 -9 0
-28 -2 -43 -4 -16 -2 -28 1 -28 6 0 5 -7 9 -16 9 -8 0 -12 5 -9 10 3 6 17 10
30 10 15 0 30 9 38 23 8 12 32 51 53 86 22 35 52 76 67 91 25 24 26 28 12 40
-19 16 -19 29 2 52 21 23 44 23 70 -2 28 -25 34 -17 63 88 19 67 21 87 11 108
-15 34 -14 54 6 76 21 24 48 23 73 -2z"/>
</g>
</svg>
