<?xml version="1.0" standalone="no"?>
<!DOCTYPE svg PUBLIC "-//W3C//DTD SVG 20010904//EN"
 "http://www.w3.org/TR/2001/REC-SVG-20010904/DTD/svg10.dtd">
<svg version="1.0" xmlns="http://www.w3.org/2000/svg"
 width="259.000000pt" height="194.000000pt" viewBox="0 0 259.000000 194.000000"
 preserveAspectRatio="xMidYMid meet">
<metadata>
Created by potrace 1.10, written by Peter Selinger 2001-2011
</metadata>
<g transform="translate(0.000000,194.000000) scale(0.100000,-0.100000)"
fill="#000000" stroke="none">
<path d="M2285 1179 c-93 -10 -968 -36 -1289 -38 -120 -1 -222 -4 -226 -6 -12
-8 -552 -7 -582 0 -24 6 -27 4 -32 -27 -3 -18 -21 -120 -41 -227 -19 -107 -33
-197 -30 -199 12 -13 369 -13 1310 -1 572 7 1057 13 1078 13 33 0 38 3 33 19
-3 11 -17 122 -33 248 l-28 229 -40 -1 c-22 -1 -76 -6 -120 -10z m131 -41 c5
-7 14 -67 21 -133 7 -66 17 -153 23 -194 6 -40 8 -76 5 -80 -3 -3 -95 -6 -203
-8 -108 -1 -389 -4 -624 -7 -235 -2 -433 -8 -439 -12 -8 -5 -9 -3 -4 6 7 11
-4 12 -56 6 -86 -11 -767 -18 -896 -10 -79 4 -103 9 -103 20 0 8 -5 14 -11 14
-6 0 -9 6 -6 14 8 20 50 266 51 296 2 48 7 49 292 50 594 4 653 5 637 11 -9 3
112 6 268 7 241 2 860 20 866 25 1 1 40 3 86 5 63 3 87 0 93 -10z"/>
<path d="M2306 1104 c-3 -8 -10 -13 -15 -9 -6 3 -14 -3 -20 -12 -9 -16 -12
-16 -22 -3 -9 13 -10 13 -6 -1 3 -9 0 -22 -6 -28 -9 -9 -8 -11 3 -8 8 2 12 2
7 0 -4 -3 -4 -10 0 -16 4 -7 -1 -6 -10 2 -20 16 -72 7 -61 -11 5 -8 -6 -9 -36
-5 -29 4 -39 2 -29 -4 16 -10 4 -11 -29 -2 -13 3 -19 9 -14 12 6 3 -13 7 -41
8 -28 1 -58 -3 -67 -8 -11 -7 -9 -8 10 -4 19 5 22 4 10 -4 -8 -6 -23 -11 -33
-11 -10 0 -16 -4 -13 -8 3 -5 -1 -9 -9 -9 -8 0 -12 4 -9 9 3 4 -3 8 -13 8 -11
0 -23 4 -29 9 -14 13 -76 20 -99 10 -20 -8 -20 -8 0 -9 20 -1 20 -1 0 -9 -11
-5 -26 -6 -32 -4 -7 3 -13 -1 -13 -8 0 -8 -9 -4 -23 9 -13 12 -27 19 -30 15
-4 -3 -7 -1 -7 5 0 7 -9 12 -21 12 -11 0 -18 4 -14 10 8 14 -53 42 -75 35 -11
-4 -20 -11 -20 -16 0 -6 -4 -7 -10 -4 -5 3 -10 -1 -10 -9 0 -9 -8 -16 -17 -17
-15 0 -15 -2 2 -9 20 -9 20 -9 0 -10 -11 -1 -32 -1 -47 0 -15 1 -35 -3 -46 -9
-20 -11 -65 -4 -57 9 2 4 -7 5 -22 2 -18 -3 -24 -1 -19 7 4 6 3 11 -2 11 -6 0
-12 -6 -15 -13 -6 -16 -50 -20 -93 -8 -27 7 -34 6 -37 -7 -3 -12 -5 -10 -6 6
0 12 -1 25 0 28 1 10 -54 35 -65 31 -6 -3 -14 -5 -19 -6 -17 -2 -35 -27 -32
-48 2 -22 -1 -22 -56 -8 -15 3 -44 -1 -70 -10 -24 -9 -49 -17 -56 -17 -7 -1
-10 -5 -7 -10 10 -15 -6 -8 -26 12 -11 11 -30 20 -42 20 -36 0 -109 -25 -101
-34 4 -5 -10 1 -32 13 -31 16 -50 20 -86 15 -41 -6 -48 -3 -76 25 -17 17 -28
31 -25 32 25 4 -53 17 -98 17 -38 0 -47 -2 -30 -7 17 -5 21 -9 12 -15 -6 -4
-17 -4 -22 -1 -6 3 -10 2 -10 -4 0 -6 -7 -8 -15 -5 -8 4 -15 1 -15 -6 0 -17
-36 -61 -44 -53 -10 10 -7 -46 3 -66 8 -13 4 -19 -18 -29 -16 -7 -32 -25 -39
-45 -15 -41 -15 -50 -2 -42 6 4 8 11 5 16 -4 5 -2 9 3 9 5 0 12 -8 15 -17 2
-10 8 -27 12 -38 8 -20 8 -20 -9 0 -16 19 -17 19 -8 1 10 -20 18 -23 113 -32
44 -5 59 -3 72 11 12 12 17 13 17 3 0 -10 3 -9 10 2 7 11 10 11 10 2 0 -10 5
-10 21 -1 12 6 19 7 15 1 -3 -6 4 -9 18 -8 13 0 22 4 19 9 -2 4 3 7 11 7 9 0
16 6 16 14 0 8 4 18 10 21 5 3 7 0 4 -8 -3 -8 2 -17 11 -21 9 -3 13 -10 10
-16 -4 -6 10 -9 35 -8 29 1 39 5 36 14 -3 7 -1 16 5 19 5 4 8 1 7 -7 -2 -8 4
-12 16 -10 10 2 15 -1 11 -7 -4 -7 0 -8 11 -4 12 4 15 3 10 -5 -4 -7 -1 -12 9
-12 9 0 14 3 12 8 -3 4 21 7 54 6 49 -1 56 1 41 12 -14 11 -13 11 11 7 15 -3
25 -9 22 -13 -3 -4 18 -8 45 -7 28 0 50 4 50 9 0 5 4 7 9 3 5 -3 23 -7 39 -9
22 -2 29 0 25 11 -4 9 0 11 11 7 9 -3 13 -11 10 -16 -10 -16 39 3 54 21 10 12
15 13 18 3 3 -6 9 -10 14 -7 5 3 16 -2 25 -11 15 -15 17 -15 28 0 11 15 16 14
65 -4 30 -11 51 -16 47 -10 -3 6 3 10 16 10 12 0 31 8 42 18 13 10 17 11 12 3
-6 -11 -4 -13 8 -8 9 3 18 1 21 -6 3 -9 7 -8 14 2 8 11 10 11 15 0 4 -12 7
-11 16 1 6 8 11 11 12 5 0 -5 7 6 14 25 7 19 14 29 14 22 3 -45 101 -69 101
-25 0 8 5 11 10 8 6 -3 10 -2 10 4 0 23 29 -3 35 -31 5 -23 9 -27 16 -17 7 12
12 12 30 1 19 -12 21 -12 16 1 -3 9 2 17 14 20 10 3 19 1 19 -4 0 -4 7 -6 15
-3 8 4 15 2 15 -3 0 -8 32 -10 103 -5 16 1 25 6 22 12 -3 6 -1 10 5 10 6 0 8
5 5 10 -11 17 3 11 30 -14 22 -21 33 -24 73 -19 26 2 60 5 76 6 40 3 47 27 8
27 -17 0 -32 6 -35 13 -3 9 -8 9 -21 -2 -20 -17 -72 -17 -92 0 -8 6 -14 21
-14 33 0 39 27 64 85 77 42 9 55 16 53 28 -4 21 -32 25 -49 8 -19 -19 -69 -28
-69 -12 0 6 12 22 26 36 20 19 37 24 74 24 73 0 83 -14 70 -104 -10 -74 -6
-95 25 -121 17 -14 68 -24 61 -11 -5 7 19 11 81 12 13 1 21 4 18 8 -2 4 6 7
17 7 26 -1 48 35 48 82 0 17 3 32 8 32 4 0 8 37 8 82 2 75 0 85 -22 105 -16
14 -19 23 -11 26 7 3 5 6 -4 6 -9 1 -20 -6 -23 -15z m34 -41 c0 -10 -7 -72
-15 -138 -8 -65 -15 -121 -15 -122 0 -2 -11 -3 -25 -3 -17 0 -25 6 -25 17 0
14 -3 13 -20 -5 -26 -27 -80 -29 -103 -4 -37 41 -29 128 17 171 27 25 77 31
101 11 8 -7 16 -10 16 -6 1 3 3 11 4 16 1 6 3 25 4 43 1 29 5 33 31 35 23 2
30 -2 30 -15z m-1224 -91 c-9 -33 -16 -63 -16 -66 0 -3 19 12 41 34 31 30 50
40 73 40 l31 -1 -44 -38 -44 -38 15 -44 c9 -24 19 -52 23 -61 6 -15 2 -18 -28
-18 -33 0 -36 2 -42 40 -4 22 -10 40 -14 40 -16 0 -31 -26 -31 -52 0 -24 -4
-28 -30 -28 -16 0 -30 2 -30 5 0 2 11 48 24 102 13 54 27 110 30 125 4 18 14
28 29 30 12 2 23 0 25 -4 2 -3 -4 -33 -12 -66z m483 46 c-15 -52 -12 -64 9
-45 21 20 54 22 84 6 18 -10 20 -17 13 -77 -10 -104 -13 -112 -44 -112 l-27 0
10 70 c12 83 2 103 -37 77 -19 -12 -27 -30 -36 -78 -6 -34 -12 -63 -13 -64 -2
-1 -16 -5 -32 -9 -21 -5 -27 -4 -24 6 3 7 16 68 28 136 23 121 23 122 51 122
26 0 27 -1 18 -32z m-1129 -3 c5 -3 10 -19 10 -36 0 -26 -3 -29 -30 -29 -17 0
-29 5 -27 11 4 20 -30 34 -60 23 -49 -17 -41 -40 23 -61 72 -23 84 -40 61 -88
-32 -68 -137 -93 -204 -50 -35 23 -29 69 9 73 22 3 30 -2 38 -22 8 -21 16 -26
43 -26 40 0 72 21 64 42 -3 8 -27 21 -54 27 -60 15 -73 26 -73 60 0 71 129
120 200 76z m1430 -55 c6 -10 10 -32 10 -49 0 -33 3 -32 -103 -35 -32 -1 -37
-4 -35 -21 3 -23 44 -33 61 -16 13 13 67 15 67 2 0 -15 -48 -49 -79 -56 -42
-9 -97 17 -105 49 -7 30 7 92 28 119 36 47 133 50 156 7z m-371 18 c-1 -25
-14 -43 -34 -46 -28 -5 -42 -27 -50 -75 -11 -70 -15 -77 -42 -77 -22 0 -25 3
-19 28 3 15 11 60 18 100 10 65 14 72 35 72 15 0 23 -6 23 -17 0 -15 1 -15 13
-1 11 14 31 25 50 27 4 1 7 -5 6 -11z m-518 -8 c23 -13 24 -45 4 -119 -8 -30
-11 -59 -8 -64 4 -6 -9 -8 -35 -4 -23 3 -45 1 -48 -4 -3 -5 -21 -9 -39 -9 -41
0 -60 26 -46 62 13 34 33 48 87 62 56 14 71 36 25 36 -17 0 -31 -4 -31 -10 0
-5 -11 -10 -25 -10 -14 0 -25 4 -25 8 0 42 95 76 141 52z m364 -14 c9 -14 15
-37 13 -53 -3 -27 -5 -28 -70 -31 -60 -3 -68 -5 -68 -23 0 -28 21 -33 72 -16
53 19 64 4 22 -30 -35 -28 -99 -31 -126 -6 -22 20 -24 82 -3 123 21 41 53 60
102 60 34 0 46 -5 58 -24z m-724 -2 c10 -13 10 -24 0 -62 -6 -26 -16 -64 -22
-84 -8 -33 -14 -38 -38 -38 l-29 0 21 64 c23 71 19 97 -13 89 -28 -7 -45 -36
-61 -100 -12 -48 -15 -53 -41 -53 -15 0 -28 1 -28 3 0 1 13 43 29 92 26 83 30
90 55 93 21 3 26 0 20 -9 -4 -7 3 -5 17 4 30 21 73 22 90 1z m185 -9 c10 -16
14 -34 9 -54 -6 -29 -8 -30 -73 -33 -59 -3 -67 -5 -67 -23 0 -23 40 -34 58
-16 6 6 24 11 41 11 l29 0 -23 -25 c-46 -49 -140 -51 -156 -3 -14 47 26 141
69 158 12 5 39 9 59 9 29 1 41 -4 54 -24z"/>
<path d="M2186 938 c-31 -44 -17 -98 25 -98 33 0 52 28 51 74 -1 48 -49 63
-76 24z"/>
<path d="M1785 930 c-18 -20 -17 -20 30 -20 39 0 46 3 41 16 -3 9 -6 18 -6 20
0 13 -50 1 -65 -16z"/>
<path d="M923 859 c-38 -11 -48 -49 -13 -49 21 0 60 33 60 50 0 12 -4 11 -47
-1z"/>
<path d="M1272 928 c-21 -21 -14 -28 29 -28 33 0 40 3 37 18 -4 21 -48 28 -66
10z"/>
<path d="M725 910 c-18 -20 -17 -20 23 -20 35 0 42 3 42 20 0 14 -7 20 -23 20
-13 0 -32 -9 -42 -20z"/>
<path d="M2003 879 c-32 -9 -46 -40 -24 -54 11 -6 61 15 61 26 0 4 3 14 6 23
7 18 3 18 -43 5z"/>
</g>
</svg>
