<?xml version="1.0" standalone="no"?>
<!DOCTYPE svg PUBLIC "-//W3C//DTD SVG 20010904//EN"
 "http://www.w3.org/TR/2001/REC-SVG-20010904/DTD/svg10.dtd">
<svg version="1.0" xmlns="http://www.w3.org/2000/svg"
 width="300.000000pt" height="168.000000pt" viewBox="0 0 300.000000 168.000000"
 preserveAspectRatio="xMidYMid meet">
<metadata>
Created by potrace 1.10, written by Peter Selinger 2001-2011
</metadata>
<g transform="translate(0.000000,168.000000) scale(0.100000,-0.100000)"
fill="#000000" stroke="none">
<path d="M1043 1580 l-21 -40 31 0 c18 -1 122 -7 232 -14 110 -8 201 -13 202
-12 2 2 -4 26 -12 54 l-16 52 -197 0 -197 0 -22 -40z m381 4 c9 -3 16 -13 16
-21 0 -14 -18 -15 -141 -9 -143 7 -159 9 -159 27 0 10 258 13 284 3z"/>
<path d="M1763 1608 c-11 -15 -63 -105 -63 -110 0 -2 12 -3 28 -4 291 -11 367
-32 166 -47 -60 -4 -138 -11 -172 -15 l-64 -7 -48 -82 -48 -81 127 -7 c141 -7
181 -13 181 -25 0 -13 -43 -17 -510 -45 -621 -38 -564 -30 -590 -76 -11 -22
-20 -39 -18 -39 2 0 217 -13 478 -30 261 -16 483 -30 492 -30 10 0 15 -5 12
-13 -4 -10 -70 -17 -274 -28 -148 -9 -272 -18 -275 -21 -3 -3 2 -37 12 -76
l18 -70 70 -6 c38 -3 127 -9 197 -12 94 -5 125 -10 122 -19 -5 -12 -44 -17
-270 -31 l-100 -7 16 -61 17 -61 364 -3 c415 -3 454 2 589 69 142 71 220 174
220 291 0 50 -4 62 -31 92 -17 19 -46 41 -64 48 l-34 12 79 37 c138 65 220
174 221 294 1 64 -15 95 -70 132 -55 37 -116 43 -450 43 -243 0 -321 -3 -328
-12z m745 -48 c24 -14 50 -37 58 -52 18 -35 18 -106 0 -149 -21 -50 -91 -125
-144 -156 -88 -49 -122 -73 -122 -86 0 -7 20 -28 45 -47 52 -39 70 -83 61
-144 -20 -121 -142 -224 -327 -276 -63 -17 -106 -19 -419 -20 -306 0 -350 1
-364 15 -18 18 -21 41 -7 49 4 3 71 10 147 16 138 11 184 24 184 54 0 7 -7 19
-15 26 -15 13 -133 27 -255 31 -80 2 -116 19 -123 56 -6 29 3 45 25 49 15 2
174 11 333 20 61 3 121 11 135 17 32 15 38 52 12 66 -19 10 -221 26 -737 57
-141 8 -148 9 -152 21 -4 12 41 17 212 28 50 3 151 10 225 15 74 6 182 13 240
16 251 12 333 23 354 43 19 19 19 21 2 40 -20 22 -54 30 -146 32 -110 4 -118
11 -77 74 27 42 35 46 117 52 201 14 261 30 247 67 -10 25 -54 37 -147 43
-121 6 -128 10 -89 52 l21 22 331 -3 332 -3 43 -25z"/>
<path d="M2103 1435 c-27 -19 -113 -165 -113 -192 0 -36 45 -56 111 -49 120
12 192 69 195 156 2 36 -3 50 -24 73 -23 24 -33 27 -87 27 -37 0 -69 -6 -82
-15z m151 -31 c20 -20 20 -66 1 -104 -22 -43 -77 -67 -174 -75 l-83 -7 26 44
c15 23 41 69 59 100 l32 58 62 0 c43 0 66 -5 77 -16z"/>
<path d="M1876 1044 c-28 -27 -76 -102 -101 -156 l-25 -53 21 -20 c16 -16 32
-20 87 -19 92 1 145 18 191 62 65 62 65 154 0 187 -39 21 -153 20 -173 -1z
m176 -31 c24 -21 23 -70 -2 -111 -29 -48 -96 -74 -199 -80 l-84 -5 20 34 c11
19 39 67 63 107 l42 72 71 0 c51 0 75 -4 89 -17z"/>
<path d="M1179 1402 l-246 -15 -26 -44 -27 -43 68 0 c37 -1 186 -9 332 -19
146 -11 267 -17 269 -16 2 2 -5 38 -15 79 l-19 76 -45 -1 c-25 -1 -156 -9
-291 -17z m311 -28 c5 -5 10 -22 12 -39 l3 -30 -80 0 c-72 0 -144 4 -375 21
-73 6 -109 18 -79 28 8 2 61 7 119 10 58 4 152 9 210 13 58 3 106 7 108 8 7 6
74 -3 82 -11z"/>
<path d="M873 930 c-117 -9 -214 -18 -216 -21 -2 -2 -13 -20 -25 -40 l-21 -35
235 -13 c130 -7 237 -11 239 -9 1 2 21 33 44 71 l41 67 -43 -1 c-23 -1 -138
-9 -254 -19z m220 -37 c-17 -48 -33 -55 -118 -49 -44 3 -126 8 -182 12 -57 4
-103 11 -103 15 0 5 3 9 8 10 4 0 16 2 27 4 11 3 65 7 120 11 55 4 101 8 103
9 1 1 36 3 77 4 68 2 74 0 68 -16z"/>
<path d="M1015 714 c-11 -4 -431 -34 -469 -34 -17 0 -30 -11 -45 -36 -12 -19
-21 -37 -21 -40 0 -2 109 -4 243 -4 l242 0 33 57 c33 56 35 63 17 57z m-62
-51 c4 -3 2 -12 -4 -20 -9 -10 -51 -13 -180 -13 -151 0 -213 9 -159 23 11 3
20 0 20 -6 0 -9 2 -9 8 0 4 6 32 13 62 16 102 7 247 7 253 0z"/>
<path d="M1100 249 l0 -179 30 0 c22 0 28 4 24 15 -8 19 10 20 25 1 33 -39
123 -26 165 24 53 63 35 179 -33 214 -38 20 -100 20 -129 0 -22 -15 -22 -15
-22 43 0 58 0 58 -30 59 l-30 1 0 -178z m56 32 c-13 -20 -26 -11 -26 16 0 25
1 26 16 11 9 -9 13 -21 10 -27z m135 -20 c32 -33 36 -58 14 -100 -24 -46 -74
-55 -119 -20 -54 43 -19 149 49 149 16 0 38 -12 56 -29z"/>
<path d="M1710 248 l0 -178 33 0 32 0 2 178 2 178 -35 0 -34 0 0 -178z"/>
<path d="M434 339 c-18 -5 -46 -25 -63 -44 -26 -30 -31 -44 -31 -86 0 -27 7
-64 16 -80 20 -40 93 -73 140 -64 33 6 104 58 104 76 0 15 -67 10 -80 -6 -19
-23 -73 -19 -98 8 -12 13 -22 26 -22 30 0 4 48 7 106 7 l107 0 -6 40 c-12 91
-89 144 -173 119z m91 -74 c39 -38 32 -45 -50 -45 -84 0 -96 12 -49 49 35 28
69 26 99 -4z"/>
<path d="M2742 330 c-34 -15 -47 -29 -63 -65 -27 -62 -19 -115 26 -159 58 -58
149 -55 201 7 l27 32 -31 3 c-18 2 -42 -4 -54 -12 -12 -9 -34 -16 -48 -16 -31
0 -70 26 -70 46 0 11 20 14 105 14 l105 0 0 26 c0 37 -28 91 -59 113 -42 30
-90 34 -139 11z m113 -65 c40 -39 32 -45 -55 -45 -81 0 -81 0 -69 23 28 52 84
63 124 22z"/>
<path d="M80 205 l0 -135 30 0 30 0 0 79 c0 44 4 91 10 105 12 34 54 44 80 21
17 -16 20 -31 20 -112 l0 -93 36 0 37 0 -7 37 c-3 21 -6 70 -6 109 0 64 -3 74
-26 98 -32 31 -102 37 -128 10 -15 -14 -16 -14 -16 0 0 11 -9 16 -30 16 l-30
0 0 -135z"/>
<path d="M602 332 c2 -5 23 -65 48 -135 37 -106 48 -127 65 -127 17 0 24 14
45 93 l24 92 18 -60 c10 -33 21 -75 24 -92 5 -25 11 -33 28 -33 18 0 27 18 65
123 24 67 46 128 49 135 3 10 -4 13 -29 10 -32 -3 -34 -5 -59 -88 l-26 -85
-13 50 c-31 126 -31 125 -55 125 -20 0 -25 -9 -40 -67 -29 -114 -30 -114 -56
-19 l-24 86 -34 0 c-19 0 -32 -4 -30 -8z"/>
<path d="M1444 307 c-29 -26 -37 -42 -41 -79 -10 -88 30 -148 107 -163 25 -4
46 0 73 13 29 16 37 17 37 6 0 -9 11 -14 30 -14 l30 0 0 135 0 135 -30 0 c-24
0 -30 -4 -30 -20 l0 -21 -22 21 c-16 14 -35 20 -70 20 -41 0 -54 -5 -84 -33z
m151 -42 c52 -51 16 -145 -55 -145 -71 0 -106 89 -55 144 32 34 77 35 110 1z"/>
<path d="M1844 307 c-29 -26 -37 -42 -41 -79 -10 -88 30 -148 107 -163 25 -4
46 0 73 13 29 16 37 17 37 6 0 -9 11 -14 30 -14 l30 0 0 135 0 135 -30 0 c-24
0 -30 -4 -30 -20 l0 -21 -22 21 c-16 14 -35 20 -70 20 -41 0 -54 -5 -84 -33z
m151 -43 c33 -36 33 -87 0 -119 -76 -77 -184 39 -110 119 16 17 34 26 55 26
21 0 39 -9 55 -26z"/>
<path d="M2110 205 l0 -135 35 0 35 0 0 93 c0 81 3 96 20 112 26 23 68 13 80
-21 6 -14 10 -61 10 -105 l0 -79 30 0 30 0 0 90 c0 98 -15 151 -48 169 -31 16
-93 13 -114 -6 -17 -15 -18 -15 -18 0 0 12 -9 17 -30 17 l-30 0 0 -135z"/>
<path d="M2455 330 c-11 -4 -31 -20 -45 -35 -21 -23 -25 -36 -25 -90 0 -57 3
-67 30 -95 34 -35 88 -53 135 -44 31 7 100 64 100 84 0 19 -66 11 -85 -10 -43
-47 -125 -5 -125 65 0 25 8 44 25 60 29 30 64 32 98 5 14 -11 39 -20 57 -20
l31 0 -17 29 c-9 15 -29 36 -44 45 -30 17 -101 20 -135 6z"/>
</g>
</svg>
