<?xml version="1.0" standalone="no"?>
<!DOCTYPE svg PUBLIC "-//W3C//DTD SVG 20010904//EN"
 "http://www.w3.org/TR/2001/REC-SVG-20010904/DTD/svg10.dtd">
<svg version="1.0" xmlns="http://www.w3.org/2000/svg"
 width="299.000000pt" height="168.000000pt" viewBox="0 0 299.000000 168.000000"
 preserveAspectRatio="xMidYMid meet">
<metadata>
Created by potrace 1.10, written by Peter Selinger 2001-2011
</metadata>
<g transform="translate(0.000000,168.000000) scale(0.100000,-0.100000)"
fill="#000000" stroke="none">
<path d="M793 1123 c-85 -85 -165 -207 -198 -302 -17 -50 -20 -147 -4 -188 5
-15 29 -47 52 -71 75 -77 184 -90 342 -41 81 25 1256 518 1328 556 46 26 74
50 66 57 -6 6 -91 -29 -744 -304 -325 -136 -624 -258 -665 -271 -50 -15 -100
-23 -150 -23 -84 0 -122 15 -164 64 -80 96 -42 243 114 440 69 86 111 131 98
104 -2 -5 -16 -35 -31 -66 -60 -122 -41 -225 49 -269 38 -18 57 -21 112 -16
93 7 1362 342 1362 359 0 16 -79 7 -195 -23 -66 -16 -343 -89 -615 -161 -537
-142 -604 -154 -662 -114 -45 30 -56 85 -33 165 10 36 19 82 19 101 1 51 -31
53 -81 3z"/>
</g>
</svg>
