<?xml version="1.0" standalone="no"?>
<!DOCTYPE svg PUBLIC "-//W3C//DTD SVG 20010904//EN"
 "http://www.w3.org/TR/2001/REC-SVG-20010904/DTD/svg10.dtd">
<svg version="1.0" xmlns="http://www.w3.org/2000/svg"
 width="300.000000pt" height="168.000000pt" viewBox="0 0 300.000000 168.000000"
 preserveAspectRatio="xMidYMid meet">
<metadata>
Created by potrace 1.10, written by Peter Selinger 2001-2011
</metadata>
<g transform="translate(0.000000,168.000000) scale(0.100000,-0.100000)"
fill="#000000" stroke="none">
<path d="M2895 1559 c-80 -42 -127 -104 -185 -239 -46 -107 -79 -153 -137
-187 -98 -57 -231 -10 -422 152 -62 52 -133 109 -157 126 -65 44 -187 100
-234 106 -22 3 -40 9 -40 12 0 4 -6 16 -14 26 -14 19 -15 19 -35 1 -21 -19
-22 -19 -37 0 -13 16 -16 17 -21 4 -3 -8 -21 -29 -40 -47 -18 -17 -33 -36 -33
-41 0 -5 -9 -17 -20 -27 -28 -25 -25 -35 19 -72 32 -26 45 -32 69 -27 40 8 74
-11 70 -39 -2 -18 -9 -22 -38 -20 -59 5 -116 -7 -139 -28 -29 -27 -27 -65 4
-85 30 -19 55 -12 55 16 0 26 18 25 87 -6 32 -14 81 -28 108 -31 42 -4 56 -1
85 19 l35 25 61 -57 c88 -82 183 -120 302 -120 94 -1 170 -59 206 -159 27 -77
141 -222 198 -252 13 -7 18 -21 18 -52 0 -85 26 -136 76 -151 20 -6 22 -2 27
56 4 46 2 69 -9 85 -8 12 -14 36 -14 52 0 22 -8 36 -30 52 -43 32 -60 76 -60
156 0 80 -22 177 -50 214 l-18 26 42 36 c24 19 51 53 61 74 89 191 117 228
207 274 82 41 110 84 83 125 -19 29 -29 30 -80 3z m33 -51 c-5 -14 -76 -58
-93 -58 -5 0 7 16 27 35 37 34 74 47 66 23z m-1223 -12 c11 -7 36 -16 55 -20
86 -15 217 -94 360 -217 159 -135 263 -189 368 -189 55 0 57 -1 69 -32 6 -18
19 -53 28 -78 9 -25 20 -93 25 -151 4 -59 11 -112 15 -119 6 -9 3 -9 -14 -1
-32 18 -96 108 -130 184 -64 142 -110 176 -258 188 -115 10 -177 36 -269 114
-36 30 -71 55 -79 55 -8 0 -33 -9 -55 -21 -44 -23 -88 -21 -142 7 l-29 15 31
25 c41 35 40 73 -1 108 -17 15 -43 26 -59 26 -68 0 -77 25 -29 83 33 41 76 49
114 23z"/>
<path d="M20 465 l0 -355 100 0 100 0 0 90 0 90 114 0 c155 0 146 -17 146 267
0 210 -1 224 -20 243 -19 19 -33 20 -230 20 l-210 0 0 -355z m190 306 c0 -5
-7 -14 -15 -21 -12 -10 -15 -45 -15 -193 0 -172 1 -182 22 -204 l21 -23 -21
-23 c-16 -17 -22 -36 -22 -68 0 -83 -6 -90 -64 -87 l-51 3 -3 300 c-1 165 0
305 3 312 5 15 145 19 145 4z m218 -3 c19 -19 17 -412 -2 -427 -9 -7 -40 -11
-81 -9 l-67 3 21 27 c19 24 21 39 21 196 0 138 -3 172 -15 182 -8 7 -15 19
-15 26 0 18 120 20 138 2z m-154 -44 c24 -23 23 -315 0 -339 -16 -16 -55 -18
-54 -2 0 4 0 86 0 182 0 166 1 175 19 175 11 0 27 -7 35 -16z"/>
<path d="M550 481 c0 -295 2 -342 16 -355 13 -14 47 -16 214 -16 194 0 199 1
214 22 14 19 16 70 16 355 l0 333 -100 0 -100 0 0 -309 c0 -303 0 -310 -20
-316 -48 -15 -50 -4 -50 321 l0 304 -95 0 -95 0 0 -339z m150 14 c4 -245 7
-284 23 -308 9 -14 17 -29 17 -32 0 -3 -33 -5 -72 -3 l-73 3 -3 300 c-1 165 0
306 3 313 3 9 20 12 52 10 l48 -3 5 -280z m255 -30 l0 -310 -72 -3 c-40 -2
-73 0 -73 3 0 4 9 18 20 32 19 24 20 41 20 303 0 152 3 280 7 284 4 4 28 6 53
4 l45 -3 0 -310z"/>
<path d="M1097 802 c-14 -15 -17 -61 -19 -355 l-3 -337 98 0 97 0 0 304 c0
265 2 305 16 317 11 9 20 10 32 2 15 -9 17 -43 20 -317 l2 -306 95 0 95 0 2
306 c3 274 5 308 20 317 12 8 21 7 32 -2 14 -12 16 -52 16 -317 l0 -304 100 0
100 0 0 329 c0 317 -1 329 -21 355 l-20 26 -323 0 c-297 0 -324 -1 -339 -18z
m173 -28 c0 -3 -9 -18 -20 -34 -18 -26 -20 -47 -22 -306 l-3 -279 -50 0 -50 0
-3 299 c-2 212 1 303 9 312 11 14 139 21 139 8z m265 -4 c3 -5 2 -10 -4 -10
-30 0 -36 -48 -41 -325 l-5 -280 -50 0 -50 0 -5 280 c-4 245 -7 284 -22 308
-10 14 -18 29 -18 32 0 10 189 5 195 -5z m204 -4 c8 -9 11 -100 9 -312 l-3
-299 -50 0 -50 0 -5 286 c-4 255 -7 289 -22 306 -10 11 -18 23 -18 26 0 14
127 7 139 -7z"/>
<path d="M1887 802 c-14 -15 -17 -61 -19 -355 l-3 -337 98 0 97 0 0 90 0 90
35 0 35 0 0 -90 0 -90 95 0 95 0 0 338 c0 316 -1 340 -18 355 -16 15 -46 17
-209 17 -170 0 -192 -2 -206 -18z m173 -29 c0 -5 -9 -19 -20 -33 -18 -22 -20
-42 -20 -191 0 -154 2 -168 21 -193 21 -26 21 -27 3 -48 -13 -14 -21 -41 -24
-87 l-5 -66 -50 0 -50 0 -3 299 c-2 212 1 303 9 312 12 15 139 21 139 7z m209
-7 c8 -9 11 -100 9 -312 l-3 -299 -50 0 -50 0 -3 59 c-2 39 -10 69 -23 87 -19
28 -19 28 1 61 18 29 20 50 20 188 0 137 -2 159 -20 188 -11 18 -20 35 -20 37
0 12 128 4 139 -9z m-151 -38 c8 -8 12 -64 12 -185 l0 -173 -35 0 -35 0 0 173
c0 171 5 197 35 197 6 0 16 -5 23 -12z"/>
</g>
</svg>
