<?xml version="1.0" standalone="no"?>
<!DOCTYPE svg PUBLIC "-//W3C//DTD SVG 20010904//EN"
 "http://www.w3.org/TR/2001/REC-SVG-20010904/DTD/svg10.dtd">
<svg version="1.0" xmlns="http://www.w3.org/2000/svg"
 width="300.000000pt" height="78.000000pt" viewBox="0 0 300.000000 78.000000"
 preserveAspectRatio="xMidYMid meet">
<metadata>
Created by potrace 1.10, written by Peter Selinger 2001-2011
</metadata>
<g transform="translate(0.000000,78.000000) scale(0.100000,-0.100000)"
fill="#000000" stroke="none">
<path d="M203 753 c-63 -33 -153 -162 -169 -243 -6 -26 -4 -32 7 -28 8 3 13
14 11 24 -3 18 -3 18 12 -1 14 -19 13 -21 -17 -32 -18 -6 -26 -12 -19 -12 7
-1 11 -5 8 -10 -10 -16 19 -30 90 -45 66 -15 70 -14 85 4 16 18 18 18 30 3 12
-15 12 -16 -3 -10 -9 3 -21 0 -27 -7 -15 -18 -2 -27 20 -15 16 8 21 6 28 -13
5 -13 7 -26 5 -29 -7 -12 24 -18 53 -10 31 8 66 -6 71 -29 3 -11 -1 -10 -16 3
-21 19 -57 23 -67 6 -4 -5 -12 -8 -18 -6 -6 2 -20 -6 -30 -16 -17 -17 -21 -18
-28 -4 -8 14 -12 14 -40 0 -23 -12 -33 -13 -42 -4 -9 9 -8 11 4 6 9 -3 22 1
29 9 7 9 16 14 20 11 5 -3 11 -1 14 4 12 19 -13 21 -63 5 -28 -10 -48 -21 -44
-27 3 -6 1 -7 -5 -3 -15 9 -64 -20 -81 -46 -9 -15 -9 -23 0 -34 8 -10 8 -14 0
-14 -6 0 -11 -7 -11 -16 0 -14 3 -14 15 -4 9 7 14 19 11 27 -3 7 -1 13 4 13 6
0 10 -9 10 -20 0 -11 -5 -20 -11 -20 -8 0 -7 -6 2 -17 12 -15 12 -16 -7 -11
-19 5 -22 2 -19 -20 3 -30 42 -65 62 -58 8 3 11 1 8 -4 -11 -19 78 -10 122 11
59 29 93 80 93 141 0 50 -7 62 -30 47 -10 -6 -11 -9 -2 -9 6 0 12 -7 12 -15 0
-8 -5 -15 -12 -15 -6 0 -8 3 -5 7 4 3 -1 15 -10 26 -10 11 -12 17 -5 13 7 -4
12 -2 12 5 0 7 3 10 6 6 4 -3 18 0 33 7 33 17 69 5 75 -26 13 -63 12 -84 -5
-131 -23 -62 -22 -57 -4 -57 18 0 32 25 45 85 13 59 49 107 84 111 33 3 40 -8
20 -32 -15 -18 -15 -18 -11 3 3 16 1 20 -10 16 -11 -4 -13 -20 -7 -77 7 -77
24 -116 52 -116 9 0 34 9 55 20 l38 21 26 -21 c39 -31 99 -44 134 -29 32 13
37 24 14 33 -8 3 -15 1 -15 -5 0 -6 -4 -7 -10 -4 -5 3 -10 1 -10 -5 0 -7 -5
-10 -11 -8 -13 4 -11 24 2 21 15 -5 42 46 34 64 -4 13 1 10 16 -6 15 -16 19
-26 11 -29 -16 -5 -15 -22 2 -22 7 0 19 -7 26 -15 29 -35 110 3 110 51 0 13 5
24 11 24 6 0 8 -8 5 -17 -2 -10 -7 -28 -10 -39 -7 -23 13 -34 62 -34 25 0 75
47 66 61 -3 5 0 9 6 9 6 0 8 4 5 10 -3 5 -11 10 -16 10 -6 0 -7 -5 -3 -12 4
-7 3 -8 -4 -4 -12 7 -16 -5 -13 -31 1 -7 -7 -13 -19 -13 -26 0 -25 10 5 38 13
13 24 27 23 30 -2 13 21 60 34 68 21 13 48 12 48 -3 0 -7 5 -13 10 -13 9 0 14
16 13 46 0 6 8 16 18 22 15 10 20 8 29 -8 9 -16 6 -27 -17 -55 -15 -19 -36
-38 -46 -41 -10 -3 -16 -11 -14 -17 3 -7 -9 -27 -26 -45 -24 -25 -27 -32 -14
-32 9 0 17 6 17 14 0 27 20 27 43 1 24 -29 94 -42 90 -17 -2 6 5 12 15 12 14
0 15 2 2 10 -20 13 -33 13 -25 0 3 -5 1 -10 -5 -10 -6 0 -8 -5 -4 -11 5 -8 1
-8 -13 0 -11 6 -23 8 -26 5 -3 -3 -3 5 0 18 4 18 3 20 -6 8 -9 -13 -11 -12
-11 5 0 15 -2 17 -9 6 -5 -8 -11 -9 -15 -3 -9 15 10 24 34 17 11 -4 20 -15 20
-26 0 -10 5 -19 10 -19 6 0 10 9 10 21 0 11 4 18 9 14 5 -3 13 4 16 15 4 12
18 25 31 30 13 5 24 15 24 22 0 9 -3 8 -10 -2 -6 -9 -10 -10 -10 -3 0 19 12
43 22 43 5 0 6 -6 2 -12 -4 -8 -2 -8 7 1 11 11 11 14 1 18 -10 4 -10 8 -1 19
8 10 16 11 31 3 15 -8 24 -7 36 4 9 8 22 12 29 10 6 -2 15 2 19 9 4 7 4 10 -1
6 -4 -4 -14 0 -23 8 -11 11 -17 12 -22 4 -4 -6 -10 -11 -14 -11 -18 3 -19 -1
-1 -9 19 -8 19 -9 -2 -9 -13 -1 -23 3 -23 7 0 13 39 46 46 39 4 -3 15 -2 25 4
15 7 17 6 13 -6 -4 -8 -1 -15 6 -15 7 0 10 -7 6 -15 -3 -8 3 -19 14 -25 17 -9
18 -7 10 21 -13 43 -28 59 -57 59 -35 0 -56 -14 -85 -57 -75 -114 -102 -153
-105 -153 -3 0 -13 5 -24 10 -18 10 -16 13 23 43 24 18 49 45 56 59 13 27 7
62 -9 52 -5 -3 -6 2 -3 10 3 9 -3 17 -18 22 -21 8 -29 10 -52 13 -5 0 -3 8 5
17 7 8 14 47 16 85 2 58 -1 73 -17 89 -27 27 -56 25 -86 -5 -23 -23 -25 -32
-23 -107 1 -45 8 -101 15 -124 10 -35 10 -45 -1 -54 -8 -7 -15 -7 -19 -1 -4 5
-2 12 4 16 5 3 10 14 10 23 -1 15 -2 15 -15 -2 -8 -11 -15 -29 -15 -40 -1 -33
-43 -111 -60 -111 -8 0 -18 -4 -22 -9 -3 -5 -4 29 -2 75 5 93 -1 134 -18 123
-7 -5 -8 -3 -3 6 4 7 2 16 -6 21 -27 17 -66 9 -93 -18 -36 -36 -51 -63 -35
-63 7 0 9 -3 6 -7 -4 -3 -2 -12 3 -18 8 -9 6 -14 -5 -19 -9 -3 -18 1 -22 9 -3
9 -13 14 -22 13 -9 -2 -15 3 -13 10 1 8 -2 11 -9 7 -8 -6 -8 -2 0 14 11 19 9
22 -19 27 -35 7 -39 19 -9 27 15 4 25 -2 39 -26 10 -17 17 -34 14 -39 -3 -4 0
-8 7 -8 14 0 5 56 -12 77 -18 21 -82 16 -120 -10 -19 -13 -33 -29 -31 -36 1
-7 -2 -10 -8 -6 -13 8 -42 -60 -38 -89 2 -11 9 -20 16 -18 6 1 17 3 24 5 16 3
19 -40 3 -53 -9 -8 -14 -6 -19 6 -3 9 -4 20 -1 24 7 12 -25 6 -33 -6 -10 -14
-82 -18 -82 -4 0 7 8 9 20 5 17 -6 20 -2 20 28 0 66 -19 142 -41 159 -27 23
-56 9 -71 -33 -12 -34 -31 -34 -33 1 -1 12 -10 29 -20 36 -22 16 -85 19 -85 4
0 -23 -16 -8 -18 17 -5 60 -56 100 -143 110 -32 4 -49 10 -49 20 0 17 35 87
63 127 16 23 17 30 6 36 -15 10 -32 3 -24 -10 9 -15 -16 -23 -28 -10 -9 10 -9
11 1 6 11 -7 17 5 13 27 -1 5 3 6 9 2 5 -3 10 2 11 12 0 14 2 15 6 3 11 -29
26 -28 71 7 33 25 51 33 66 28 12 -4 32 -6 46 -6 17 1 21 -2 12 -7 -10 -7 -4
-23 23 -68 20 -32 38 -77 42 -99 6 -37 7 -38 15 -15 5 16 6 8 2 -22 -4 -39 -2
-48 10 -48 21 0 20 21 -4 125 -21 90 -48 152 -74 175 -19 15 -69 23 -60 9 3
-5 0 -10 -5 -10 -6 -1 -17 -2 -23 -3 -7 -1 -12 -8 -10 -16 3 -11 0 -11 -12 -1
-15 13 -12 36 3 27 4 -3 13 -1 20 3 24 15 -37 9 -66 -6z m129 -12 c15 -18 15
-19 -3 -24 -10 -3 -17 -1 -13 4 3 5 -2 9 -12 9 -13 0 -14 3 -4 15 15 18 12 19
32 -4z m-136 -49 c-3 -16 -36 -27 -36 -11 0 5 5 18 12 29 13 21 28 10 24 -18z
m-87 -98 c-6 -7 -8 -18 -4 -24 4 -6 1 -9 -7 -8 -7 2 -12 -3 -10 -10 1 -8 -2
-11 -8 -7 -13 8 -13 -7 0 -23 5 -7 2 -6 -7 2 -13 12 -14 18 -4 29 6 8 10 21 9
28 -2 8 3 13 11 11 8 -2 11 3 8 12 -4 10 -1 13 9 9 11 -4 12 -9 3 -19z m1077
-69 c7 -5 10 -14 7 -19 -3 -4 -9 -3 -13 4 -6 10 -13 8 -29 -7 l-21 -20 28 2
c16 1 33 5 39 8 7 5 9 0 6 -13 -3 -11 -10 -20 -15 -20 -5 0 -6 5 -2 12 4 6 3
8 -2 5 -16 -9 -15 -64 1 -77 13 -10 15 -9 15 9 0 11 -5 21 -11 21 -5 0 -7 5
-3 11 4 8 11 4 19 -11 15 -27 0 -64 -37 -92 -13 -10 -18 -18 -11 -18 6 0 15 5
18 10 5 8 11 7 20 0 8 -7 19 -9 24 -5 7 4 8 0 5 -10 -4 -9 -13 -14 -20 -11 -9
3 -11 0 -7 -11 4 -11 2 -14 -8 -11 -8 3 -13 11 -11 17 1 7 -2 10 -8 6 -6 -4
-9 -14 -8 -23 2 -9 -5 -18 -15 -20 -17 -3 -18 2 -12 65 3 37 8 84 11 103 7 43
6 46 -11 42 -7 -1 -15 5 -19 13 -3 9 -2 13 4 10 9 -6 14 8 11 28 -1 5 3 6 9 2
5 -3 10 -1 10 4 0 13 19 10 36 -4z m-1096 -76 c0 -5 11 -7 25 -5 14 3 23 1 20
-4 -8 -13 -85 -7 -85 6 0 6 3 13 6 17 8 8 34 -3 34 -14z m425 -159 c3 -4 -2
-10 -10 -14 -9 -3 -15 0 -15 9 0 22 -7 19 -41 -17 l-30 -33 20 34 c11 19 18
38 15 42 -3 5 9 3 26 -2 16 -6 32 -15 35 -19z m245 -26 c0 -14 -30 -40 -56
-48 -11 -3 -21 -13 -21 -21 0 -13 3 -13 18 1 12 10 19 12 24 4 4 -7 14 -1 27
15 16 20 23 23 34 14 8 -6 14 -8 14 -4 0 5 8 1 18 -8 10 -10 23 -14 28 -10 5
5 0 -3 -11 -16 -11 -14 -15 -22 -10 -18 6 3 11 -3 11 -13 0 -15 -3 -16 -14 -8
-7 6 -12 18 -11 27 3 37 -1 39 -38 21 -27 -13 -42 -15 -50 -8 -11 9 -16 5 -15
-12 0 -3 -6 -11 -13 -17 -11 -10 -18 -8 -34 14 -12 14 -21 21 -21 14 0 -6 -4
-11 -10 -11 -14 0 -12 28 3 33 8 2 9 8 2 18 -5 8 1 3 13 -11 13 -14 22 -18 20
-10 -3 8 10 26 28 41 25 20 30 29 21 38 -7 7 -2 7 16 -1 15 -7 27 -18 27 -24z
m169 23 c14 3 20 -3 25 -27 10 -54 7 -75 -15 -88 -12 -8 -18 -19 -15 -28 3 -8
2 -12 -3 -9 -6 3 -14 -2 -19 -11 -6 -11 -16 -15 -26 -11 -21 8 -37 48 -25 63
20 25 56 100 53 112 -1 7 0 8 2 3 3 -5 13 -7 23 -4z m-819 -28 c0 -5 -5 -7
-12 -3 -7 5 -9 2 -5 -9 4 -12 2 -14 -10 -10 -11 4 -14 2 -9 -5 4 -7 2 -12 -3
-12 -6 0 -11 5 -11 11 0 6 -7 3 -16 -5 -20 -20 -30 -21 -14 -1 12 15 57 42 73
44 4 1 7 -4 7 -10z m124 -5 c11 -30 6 -71 -13 -95 -18 -23 -18 -49 0 -49 4 0
6 6 3 13 -3 8 3 20 12 28 16 13 16 12 4 -11 -7 -14 -13 -27 -12 -30 1 -3 -4
-5 -10 -5 -7 0 -20 -7 -28 -15 -8 -9 -14 -14 -13 -11 2 2 -2 10 -9 18 -6 8 -7
13 -2 12 19 -3 34 1 34 12 0 11 -41 2 -50 -11 -10 -14 -71 11 -81 33 -19 42 3
72 73 100 76 30 84 31 92 11z m550 -104 c-9 -25 -17 -46 -19 -48 -1 -2 -20 4
-40 12 -48 20 -52 20 -31 -3 15 -16 15 -20 1 -31 -12 -10 -16 -9 -21 4 -3 9
-13 16 -22 16 -13 0 -13 3 -4 13 12 11 145 86 149 83 1 -1 -5 -22 -13 -46z
m-724 -35 c7 -8 20 -15 28 -15 13 0 14 -2 3 -12 -11 -11 -14 -10 -18 0 -3 6
-9 10 -14 6 -5 -3 -9 2 -9 10 0 9 -5 16 -11 16 -5 0 -7 -5 -3 -12 4 -7 3 -8
-4 -4 -7 4 -12 11 -12 17 0 14 26 11 40 -6z m553 -4 c10 -11 8 -12 -10 -7 -15
5 -25 1 -32 -11 -11 -19 -15 -5 -5 20 6 18 29 16 47 -2z"/>
<path d="M2576 551 c-11 -12 -15 -25 -10 -33 4 -7 3 -10 -1 -5 -15 13 -35 -54
-35 -119 l0 -64 -34 0 c-35 0 -79 -28 -96 -61 -6 -10 -14 -39 -19 -64 -7 -40
-6 -47 11 -56 18 -10 19 -9 7 13 -12 22 -11 23 8 5 12 -10 19 -27 17 -42 -1
-14 2 -25 6 -25 10 0 7 35 -5 64 -5 11 -3 22 6 28 10 7 8 8 -8 5 -16 -4 -23 0
-23 10 0 8 6 13 13 10 7 -3 13 3 14 14 1 12 -3 16 -15 13 -13 -4 -13 -3 2 6
24 16 37 -3 31 -48 -3 -24 1 -40 15 -54 10 -11 16 -27 13 -35 -5 -13 -3 -14
18 -2 13 7 28 13 34 14 5 0 9 12 10 27 0 14 4 30 9 35 5 4 7 -1 4 -13 -4 -17
-1 -20 19 -16 14 3 28 15 34 29 9 24 5 85 -6 103 -3 6 0 10 9 10 8 0 16 3 19
8 4 8 0 -8 -9 -35 -4 -12 2 -9 15 7 30 37 45 87 45 162 1 61 -11 100 -21 71
-3 -10 -10 -10 -24 -2 -26 13 -44 2 -28 -17 10 -12 14 -12 20 -2 7 10 12 9 26
-4 14 -14 15 -20 5 -30 -10 -10 -15 -10 -22 2 -8 12 -10 9 -10 -11 0 -14 -6
-46 -14 -72 -9 -31 -10 -49 -3 -56 7 -7 1 -12 -17 -17 -24 -6 -25 -8 -13 -23
20 -24 22 -97 3 -104 -9 -4 -16 -1 -16 6 0 7 -3 23 -6 37 l-5 25 16 -25 16
-25 -7 25 c-3 14 -7 25 -8 26 -25 10 -55 38 -50 46 5 7 2 8 -6 3 -8 -5 -11 -3
-8 6 3 9 17 13 35 12 31 -3 29 -8 57 144 2 13 -2 24 -10 27 -11 4 -13 2 -6
-10 10 -18 -10 -68 -31 -81 -8 -5 -8 -2 1 9 7 8 9 24 5 33 -4 13 -3 16 5 11
15 -9 16 6 2 20 -8 8 -6 15 5 24 8 7 15 18 15 25 0 7 8 19 17 26 9 8 14 9 10
2 -9 -15 31 -29 45 -15 12 12 -17 42 -41 42 -10 0 -26 -9 -35 -19z m-86 -238
c0 -2 -9 -14 -20 -26 -22 -22 -10 -38 14 -18 9 8 18 5 34 -10 27 -24 27 -25 1
-85 l-22 -48 -15 23 c-9 13 -15 39 -13 60 2 31 -2 39 -23 51 -20 10 -23 16
-15 27 6 7 18 13 26 13 8 0 12 4 9 8 -3 5 1 9 9 9 8 0 15 -2 15 -4z"/>
<path d="M1776 519 c-14 -11 -23 -25 -20 -31 4 -7 2 -8 -4 -4 -7 4 -20 -6 -32
-26 -18 -29 -20 -45 -16 -136 l5 -103 -34 -50 c-20 -27 -34 -49 -33 -50 26 -7
37 -3 47 18 6 13 9 29 6 34 -4 5 -1 9 5 9 6 0 8 5 4 12 -4 7 -3 8 4 4 7 -4 11
-19 10 -33 -2 -15 2 -28 8 -30 6 -2 9 -15 6 -29 -3 -20 -7 -23 -14 -12 -6 9
-7 5 -3 -11 5 -16 4 -21 -4 -17 -6 4 -11 3 -11 -3 0 -5 4 -12 9 -16 14 -8 30
27 35 78 2 25 10 55 16 67 8 15 8 20 1 16 -6 -4 -11 -5 -11 -2 0 9 77 46 83
40 3 -3 -2 -18 -10 -33 -21 -36 -11 -76 29 -113 30 -28 78 -36 79 -13 0 6 7
18 16 27 15 16 17 16 34 -7 11 -13 35 -29 55 -35 37 -13 89 -6 79 10 -4 6 -17
7 -30 4 -12 -3 -26 -1 -30 5 -3 6 -10 9 -15 6 -10 -6 -25 14 -16 22 3 3 13 0
22 -8 21 -17 44 -20 44 -6 0 8 4 7 12 -1 17 -17 45 -15 52 3 3 9 0 15 -9 15
-8 0 -15 -4 -15 -10 0 -5 -5 -10 -11 -10 -7 0 -8 7 -4 18 4 9 8 23 8 30 1 19
8 15 44 -28 19 -22 43 -40 53 -40 29 0 75 44 64 61 -15 24 -14 41 3 35 13 -5
14 -4 3 9 -7 9 -11 18 -8 20 3 3 11 -1 18 -10 9 -11 10 -18 1 -29 -9 -11 -7
-22 11 -52 12 -22 31 -47 42 -57 19 -17 65 -24 67 -9 0 4 2 15 4 24 2 10 -2
16 -8 15 -6 -1 -13 8 -15 21 -2 12 -8 22 -13 22 -6 0 -8 -4 -5 -9 6 -10 -24
-25 -32 -16 -3 3 -2 5 2 5 4 0 -2 13 -13 29 -18 25 -20 38 -15 90 14 134 -67
152 -148 33 -17 -26 -34 -49 -38 -52 -3 -3 -12 -20 -19 -38 -17 -41 -44 -57
-71 -42 -11 6 -25 8 -30 5 -5 -3 -11 -1 -15 5 -3 5 -1 10 5 10 6 0 8 5 5 10
-11 17 -28 11 -22 -9 2 -10 1 -25 -4 -32 -7 -11 -9 -10 -9 4 0 9 -7 17 -15 17
-19 0 -19 29 -1 53 14 18 15 18 25 0 6 -10 11 -14 11 -9 0 5 -7 18 -16 28 -15
16 -15 18 -1 24 9 3 14 14 12 24 -3 13 1 17 12 13 8 -3 11 -9 6 -12 -14 -11
-14 -31 2 -54 8 -12 15 -16 15 -10 0 6 6 11 13 10 36 -1 46 4 41 21 -5 14 -4
15 5 2 10 -14 16 -7 12 13 -1 5 3 6 9 2 8 -5 7 -11 -1 -21 -8 -10 -8 -14 0
-14 16 0 25 47 15 82 -5 17 -21 40 -36 51 -26 19 -28 19 -53 3 -14 -9 -23 -22
-19 -28 4 -7 3 -8 -4 -4 -13 8 -50 -61 -76 -141 -10 -29 -21 -55 -25 -58 -5
-2 -19 7 -32 22 -13 14 -19 23 -13 20 8 -4 14 14 18 55 7 57 6 64 -15 81 -20
16 -24 16 -45 2 -13 -8 -25 -11 -29 -6 -3 5 -1 12 5 16 6 4 8 11 5 16 -4 5 -2
9 4 9 10 0 36 74 34 97 0 7 3 10 7 8 11 -7 24 80 15 94 -11 18 -61 12 -89 -10z
m71 -12 c3 -6 1 -7 -5 -3 -13 8 -16 -6 -4 -18 12 -12 9 -30 -8 -43 -16 -12
-34 -7 -24 8 3 5 9 7 13 5 4 -3 5 8 3 24 -3 20 -9 28 -22 27 -10 -1 -16 -5
-14 -9 3 -5 10 -5 16 -2 7 5 8 2 2 -7 -4 -8 -9 -25 -10 -39 -1 -14 -3 -25 -4
-25 -1 0 -4 -10 -5 -22 -1 -12 3 -21 9 -20 6 1 10 -7 8 -18 -2 -11 -4 -28 -6
-37 -1 -10 -5 -20 -8 -24 -4 -3 -4 -12 -1 -20 2 -7 -2 -23 -11 -36 -15 -21
-16 -21 -17 -3 -1 17 -3 16 -10 -5 -6 -19 -8 -13 -6 28 1 28 -1 52 -5 52 -5 0
-8 -6 -9 -12 -1 -7 -4 -2 -8 12 -4 14 -3 28 3 32 6 4 5 12 -3 22 -9 11 -10 16
-2 16 6 0 11 -4 11 -10 0 -5 4 -10 10 -10 5 0 8 10 6 23 -2 14 -9 21 -21 19
-15 -3 -14 0 4 19 17 19 23 21 34 9 10 -11 8 -12 -8 -6 -15 6 -17 4 -8 -5 20
-20 36 1 16 23 -13 15 -14 19 -3 16 10 -2 14 3 12 16 -7 37 55 55 75 23z m246
-181 c3 3 4 -2 3 -13 -2 -10 1 -23 6 -30 6 -7 4 -14 -4 -19 -7 -4 -10 -4 -6 0
9 11 -30 52 -39 41 -5 -4 -2 -10 5 -12 20 -7 14 -51 -10 -67 -29 -21 -51 -3
-23 18 19 14 19 14 0 38 l-20 23 23 -19 c12 -11 22 -14 22 -8 0 6 -4 14 -10
17 -5 3 -10 14 -10 23 0 12 3 13 8 5 10 -16 37 1 28 18 -4 8 -1 6 7 -3 8 -10
17 -15 20 -12z m164 -26 c-3 -11 -1 -23 4 -26 5 -3 9 -14 9 -25 0 -27 22 -19
27 10 2 15 -1 20 -9 15 -6 -4 -8 -3 -4 4 3 6 2 13 -4 17 -22 13 -9 24 16 13
15 -7 22 -14 16 -16 -5 -1 -8 -16 -6 -31 3 -28 -17 -48 -36 -36 -5 3 -11 -13
-15 -34 -3 -22 -12 -47 -19 -57 -12 -15 -16 -16 -44 -3 -39 17 -61 58 -38 71
9 5 16 16 16 23 0 8 5 15 11 15 5 0 8 4 5 9 -4 5 3 7 14 4 16 -4 18 -8 9 -19
-6 -8 -15 -11 -20 -8 -13 8 -11 -10 4 -26 10 -12 9 -12 -5 -1 -15 11 -19 11
-24 -2 -3 -9 -1 -23 4 -32 7 -14 16 -7 49 43 39 58 39 60 16 56 -21 -4 -23 -2
-14 14 6 11 7 23 3 27 -4 5 -2 5 5 1 6 -3 14 -2 18 4 10 17 18 11 12 -10z
m-397 -30 c-10 -6 -11 -10 -2 -10 6 0 12 -9 12 -21 0 -11 -5 -17 -10 -14 -6 4
-8 11 -4 16 3 6 -3 13 -15 16 -29 8 -26 18 7 21 21 1 23 0 12 -8z"/>
<path d="M232 371 c-14 -8 -13 -72 1 -71 4 0 7 3 8 8 1 4 5 15 10 25 7 11 6
17 -2 17 -6 0 -9 7 -5 15 6 17 6 18 -12 6z"/>
<path d="M2714 343 c-28 -38 -75 -140 -79 -172 -2 -14 -2 -20 1 -13 3 6 11 9
16 6 7 -4 8 -2 4 4 -4 7 -3 12 2 12 6 0 8 8 5 18 -2 11 3 24 14 32 10 8 15 11
11 6 -4 -5 -3 -18 3 -29 7 -13 7 -17 1 -13 -6 3 -14 -4 -18 -16 -4 -13 -14
-29 -23 -36 -9 -8 -10 -11 -3 -7 7 4 12 0 12 -9 0 -9 6 -15 13 -13 7 1 11 -7
9 -20 -2 -13 2 -23 8 -23 6 0 10 8 8 18 -3 14 5 17 43 17 52 0 82 22 82 61 0
28 12 40 23 23 5 -8 3 -9 -6 -4 -9 6 -11 4 -5 -4 5 -9 11 -9 17 -3 13 13 -45
142 -62 142 -6 0 -8 5 -5 10 9 14 -13 40 -34 40 -10 0 -26 -12 -37 -27z m59
-4 c-9 -9 -6 -16 10 -29 l21 -17 -22 -8 c-25 -7 -24 -21 10 -88 27 -55 12 -71
-62 -65 -30 3 -49 3 -42 1 6 -3 12 -9 12 -15 0 -6 -6 -6 -15 2 -13 11 -11 19
13 62 26 48 26 50 8 63 -10 8 -23 12 -29 8 -6 -3 -7 -1 -3 6 6 9 14 8 32 -4
21 -14 28 -10 22 13 -1 4 -9 6 -18 4 -13 -2 -13 -2 0 7 11 8 11 11 2 11 -7 0
-10 5 -7 11 5 7 13 5 25 -6 9 -8 24 -13 33 -9 15 5 15 7 1 22 -12 11 -18 12
-23 3 -6 -9 -11 -8 -21 4 -13 15 -5 20 27 16 6 -1 14 3 18 9 3 5 9 10 13 10 3
0 1 -5 -5 -11z"/>
<path d="M1526 345 c-16 -12 -17 -18 -8 -27 8 -8 15 -9 20 -3 8 12 73 15 66 3
-5 -7 10 -12 29 -9 4 1 3 -7 -2 -18 -6 -10 -8 -20 -6 -23 3 -3 -2 -5 -10 -5
-11 0 -12 4 -5 11 15 15 12 22 -8 22 -13 0 -19 -8 -19 -26 0 -14 -4 -57 -8
-97 -9 -85 7 -123 51 -123 14 0 22 4 19 10 -3 5 0 7 8 5 18 -8 73 54 58 66 -6
5 -9 6 -6 3 4 -7 -44 -49 -56 -49 -4 0 -11 -3 -15 -8 -12 -12 -24 -8 -24 8 0
8 -3 15 -8 15 -4 0 -8 18 -8 40 -1 21 3 37 8 34 5 -3 8 -13 6 -22 -3 -24 12
-76 20 -67 4 4 7 30 7 58 1 29 5 78 9 109 l9 57 -34 20 c-19 12 -40 19 -47 16
-7 -3 -10 0 -7 5 9 15 -17 11 -39 -5z"/>
<path d="M1550 305 c-13 -7 -30 -11 -37 -8 -18 7 -17 -31 2 -47 15 -12 11 -35
-4 -25 -5 2 -20 -17 -35 -44 -26 -49 -73 -80 -96 -66 -6 4 -20 -1 -31 -11 -11
-10 -19 -12 -19 -6 0 7 -5 11 -11 9 -6 -1 -14 4 -17 12 -3 9 0 11 9 7 8 -4 6
-1 -4 7 -11 9 -14 17 -7 20 6 3 5 4 -2 3 -24 -5 -13 -41 21 -71 28 -24 43 -30
82 -30 39 0 53 5 79 30 41 39 55 66 70 140 8 33 18 66 23 73 15 19 5 22 -23 7z
m-42 -162 c-2 -10 -14 -20 -27 -21 -16 -3 -20 -6 -12 -12 10 -5 9 -9 -3 -13
-23 -9 -20 13 6 40 26 27 41 30 36 6z"/>
<path d="M2935 225 c-25 -30 -53 -55 -60 -55 -17 0 -81 -68 -77 -82 2 -6 -4
-8 -13 -5 -8 4 -15 1 -15 -6 0 -8 -4 -7 -10 3 -9 13 -11 13 -20 0 -11 -18 -14
-41 -2 -25 8 11 62 19 62 10 0 -4 -7 -13 -15 -21 -9 -10 -15 -11 -15 -4 0 7
-6 5 -16 -4 -20 -21 -23 -20 -34 6 -8 22 -9 21 -7 -4 1 -22 6 -28 24 -28 13 0
23 5 23 11 0 5 4 8 9 5 12 -7 26 6 135 122 86 92 113 132 87 132 -5 0 -30 -25
-56 -55z"/>
<path d="M1431 256 c-7 -8 -10 -20 -6 -26 3 -5 -1 -10 -9 -10 -8 0 -19 -8 -25
-17 -8 -14 -12 -15 -25 -4 -15 13 -15 15 1 26 15 11 15 13 -5 24 -14 8 -22 8
-22 1 0 -5 5 -10 10 -10 6 0 3 -11 -6 -25 -9 -15 -13 -25 -8 -24 24 4 36 -2
30 -17 -3 -9 10 -2 31 15 20 16 40 28 45 25 5 -3 7 -1 6 4 -2 6 0 10 5 11 4 1
7 -1 7 -4 0 -3 0 -12 0 -21 0 -8 -4 -12 -10 -9 -5 3 -10 1 -10 -5 0 -7 -8 -9
-21 -5 -16 5 -19 4 -14 -5 5 -8 4 -11 -2 -7 -6 4 -13 -2 -16 -12 -4 -17 -2
-18 24 -9 28 10 69 51 69 70 0 5 -8 18 -19 29 -16 17 -20 18 -30 5z"/>
<path d="M1130 209 c0 -6 -7 -8 -16 -5 -9 3 -12 2 -9 -5 4 -6 -1 -17 -11 -25
-18 -14 -17 -14 5 -3 21 10 23 9 18 -5 -4 -10 -3 -15 2 -11 5 3 11 0 13 -6 2
-6 3 8 3 30 0 23 -1 41 -2 41 -2 0 -3 -5 -3 -11z"/>
<path d="M2089 203 c-1 -4 -1 -12 0 -17 1 -5 -4 -4 -12 2 -11 9 -18 8 -32 -8
-18 -19 -17 -20 2 -20 28 0 70 34 55 44 -7 4 -13 4 -13 -1z"/>
<path d="M2553 136 c3 -8 -1 -20 -9 -27 -13 -11 -28 -14 -77 -18 -29 -2 -8
-21 23 -21 17 0 38 9 50 22 17 18 20 19 20 5 0 -9 7 -17 15 -17 8 0 15 -6 15
-14 0 -8 3 -22 7 -32 5 -13 3 -15 -8 -9 -12 8 -12 6 0 -8 17 -22 35 -22 27 0
-7 17 9 33 32 33 6 0 11 -5 10 -11 -2 -6 7 -15 20 -20 16 -6 22 -5 22 6 0 9
-6 12 -17 8 -10 -4 -14 -2 -9 5 7 11 -28 27 -42 18 -4 -2 -14 0 -22 6 -13 8
-13 9 1 5 9 -3 22 -1 30 5 11 8 10 9 -3 4 -10 -3 -18 -1 -18 4 0 5 -7 7 -15 4
-12 -5 -15 2 -15 30 0 30 -4 36 -21 36 -14 0 -19 -5 -16 -14z"/>
</g>
</svg>
