<?xml version="1.0" standalone="no"?>
<!DOCTYPE svg PUBLIC "-//W3C//DTD SVG 20010904//EN"
 "http://www.w3.org/TR/2001/REC-SVG-20010904/DTD/svg10.dtd">
<svg version="1.0" xmlns="http://www.w3.org/2000/svg"
 width="300.000000pt" height="204.000000pt" viewBox="0 0 300.000000 204.000000"
 preserveAspectRatio="xMidYMid meet">
<metadata>
Created by potrace 1.10, written by Peter Selinger 2001-2011
</metadata>
<g transform="translate(0.000000,204.000000) scale(0.100000,-0.100000)"
fill="#000000" stroke="none">
<path d="M1560 1618 c0 -7 7 -61 17 -120 11 -74 21 -108 30 -108 7 0 13 -4 13
-10 0 -5 -5 -10 -10 -10 -7 0 -8 -30 -4 -90 6 -80 5 -90 -10 -90 -10 0 -16 8
-16 25 0 19 -5 25 -21 25 -18 0 -20 -4 -15 -37 3 -21 8 -72 11 -113 11 -144
27 -241 39 -237 6 2 10 11 10 20 -16 192 -16 207 -1 207 11 0 16 -19 21 -82
10 -115 15 -138 33 -138 13 0 15 8 9 47 -3 26 -11 133 -16 237 -10 187 -19
282 -41 419 -9 56 -14 67 -30 67 -10 0 -19 -6 -19 -12z m49 -499 c-16 -9 -29
-3 -29 16 0 19 23 25 34 7 5 -9 4 -17 -5 -23z"/>
<path d="M1633 1588 c14 -96 36 -354 46 -526 6 -101 13 -187 15 -190 2 -4 27
-5 55 -4 57 4 57 4 40 80 -9 43 -14 51 -42 59 -25 7 -33 15 -35 37 -3 25 -2
26 17 17 30 -17 31 -15 31 44 0 50 -2 56 -25 65 -22 8 -25 16 -25 55 0 44 0
44 26 34 15 -5 29 -8 31 -5 3 2 0 70 -6 149 -6 80 -11 155 -11 167 0 21 -31
39 -94 54 l-29 7 6 -43z m80 -43 c4 -8 2 -17 -3 -20 -15 -9 -12 -45 4 -45 9 0
15 -22 19 -75 7 -80 3 -105 -18 -105 -15 0 -23 34 -24 104 -1 26 -4 53 -8 59
-8 12 -11 67 -5 85 6 17 29 15 35 -3z m57 -608 c0 -13 -31 -20 -41 -10 -5 5
-7 17 -3 26 5 13 9 14 25 4 10 -6 19 -15 19 -20z"/>
<path d="M1502 1511 c-15 -64 -4 -105 30 -109 l25 -3 -16 75 c-9 41 -19 77
-22 80 -3 3 -11 -16 -17 -43z"/>
<path d="M1785 1293 c9 -294 22 -418 45 -418 12 0 15 14 15 69 0 95 20 99 29
6 6 -62 10 -70 28 -70 17 0 19 4 14 28 -4 15 -11 135 -15 267 -9 261 -20 317
-68 355 -56 44 -56 44 -48 -237z m55 149 c0 -16 7 -37 15 -48 25 -33 19 -71
-14 -87 l-29 -14 -6 48 c-6 43 -3 75 10 117 7 23 24 12 24 -16z m28 -248 c-2
-64 -6 -79 -20 -82 -15 -3 -16 6 -11 75 6 93 10 110 24 96 5 -5 9 -45 7 -89z
m2 -121 c0 -13 -14 -28 -27 -30 -14 -3 -18 19 -6 30 9 9 33 9 33 0z"/>
<path d="M1906 1463 c4 -10 10 -126 14 -258 4 -132 10 -247 13 -255 3 -8 8
-27 11 -42 5 -24 12 -28 39 -28 18 0 42 6 52 14 17 13 18 17 2 122 -9 60 -19
164 -22 232 -6 141 -18 180 -68 210 -42 27 -52 28 -41 5z m72 -125 c26 -85 25
-99 -8 -78 -10 6 -15 26 -16 60 -1 57 10 65 24 18z m4 -195 c3 -89 -1 -111
-21 -99 -7 4 -11 43 -11 97 0 70 3 89 14 89 11 0 15 -20 18 -87z m43 -162 c5
-41 5 -42 -22 -39 -20 2 -30 11 -37 30 -8 23 -6 30 15 47 29 24 37 18 44 -38z"/>
<path d="M1461 1429 c-6 -18 -19 -41 -28 -51 -19 -21 -16 -25 38 -49 l40 -19
-3 23 c-2 18 -9 22 -35 20 -43 -4 -52 15 -14 30 32 12 40 37 22 65 -6 10 -11
5 -20 -19z"/>
<path d="M2039 1358 c-15 -57 -6 -216 15 -257 9 -17 23 -31 31 -31 9 0 15 -10
15 -25 0 -29 -20 -34 -27 -6 -7 26 -33 36 -32 13 1 -9 8 -46 17 -81 18 -69 40
-93 69 -75 26 16 31 52 18 139 -9 63 -14 79 -27 77 -20 -3 -42 24 -34 43 8 22
26 18 26 -6 0 -18 2 -20 16 -8 16 13 15 37 -8 175 -8 51 -14 64 -34 73 -34 15
-32 16 -45 -31z m49 -128 c-2 -21 -9 -36 -18 -38 -17 -3 -25 51 -15 108 l7 35
14 -35 c8 -19 14 -50 12 -70z m27 -255 c0 -17 -6 -25 -17 -25 -11 0 -15 5 -12
15 4 8 1 15 -5 15 -6 0 -11 5 -11 10 0 6 10 10 23 10 17 0 22 -6 22 -25z"/>
<path d="M1525 1328 c4 -18 8 -33 9 -33 0 0 11 -8 22 -18 21 -17 21 -17 17 10
-10 65 -14 73 -34 73 -18 0 -20 -4 -14 -32z"/>
<path d="M1420 1299 c0 -7 7 -21 16 -31 14 -14 15 -20 4 -33 -10 -12 -11 -53
-7 -178 8 -193 12 -217 39 -217 16 0 19 5 14 28 -15 78 -18 122 -7 122 13 0
13 -1 36 -82 13 -45 21 -58 36 -58 24 0 24 3 -2 86 -15 48 -21 91 -20 143 1
40 -1 97 -4 125 -6 43 -12 55 -38 73 -44 30 -67 38 -67 22z m75 -164 c0 -63
-20 -70 -29 -9 -6 49 -1 67 17 61 7 -2 12 -24 12 -52z"/>
<path d="M1360 1270 c-6 -11 -8 -20 -5 -20 3 0 1 -9 -5 -21 -8 -15 -8 -24 0
-34 15 -18 4 -36 -15 -28 -13 4 -15 -12 -14 -103 1 -60 4 -136 8 -169 l6 -60
35 -3 c52 -3 58 5 52 71 -5 58 -5 58 -35 55 -41 -4 -51 27 -13 42 22 8 26 16
26 51 0 39 -1 41 -25 35 -22 -6 -25 -3 -25 19 0 17 9 29 30 40 26 13 30 21 30
55 0 29 -5 43 -20 52 -26 17 -25 26 3 31 l22 4 -22 2 c-13 0 -27 -7 -33 -19z"/>
<path d="M1271 1181 c-17 -13 -20 -20 -12 -26 9 -5 8 -11 -4 -25 -9 -10 -19
-34 -22 -54 -8 -51 -21 -45 -25 13 -3 43 -5 48 -18 38 -14 -11 -14 -27 0 -152
13 -120 18 -140 33 -143 17 -3 18 2 11 59 -9 77 7 74 32 -6 13 -40 23 -55 36
-55 25 0 23 15 -13 105 l-31 77 24 83 c28 92 25 113 -11 86z"/>
<path d="M1114 1085 c-3 -8 -3 -18 0 -23 3 -6 -1 -15 -8 -21 -11 -10 -17 -8
-25 6 -8 14 -10 -1 -11 -62 0 -113 8 -155 31 -155 15 0 17 6 12 35 -4 27 -2
35 10 35 9 0 17 -13 21 -35 7 -36 36 -50 36 -17 0 44 -22 200 -32 225 -11 30
-26 35 -34 12z m16 -100 c0 -24 -5 -35 -15 -35 -10 0 -15 11 -15 35 0 24 5 35
15 35 10 0 15 -11 15 -35z"/>
<path d="M990 1007 c-46 -16 -60 -63 -38 -128 15 -44 15 -44 68 -47 51 -3 52
-2 46 20 -3 13 -6 26 -6 31 0 4 -18 7 -40 7 -42 0 -56 16 -17 22 14 2 23 11
25 26 3 20 0 22 -24 16 -20 -5 -26 -4 -22 7 2 8 18 15 35 17 21 2 33 10 36 23
6 22 -10 24 -63 6z"/>
<path d="M900 981 c-5 -11 -10 -29 -10 -41 0 -12 -4 -18 -10 -15 -5 3 -10 19
-10 36 0 43 -35 40 -50 -5 -15 -46 2 -116 29 -116 17 0 18 3 6 38 -11 31 -12
56 -2 41 2 -2 15 -23 30 -46 30 -47 64 -60 53 -20 -15 47 -18 105 -7 126 10
17 9 21 -3 21 -9 0 -20 -9 -26 -19z"/>
<path d="M719 949 c-26 -25 -30 -32 -18 -40 8 -5 24 -9 36 -9 12 0 25 -5 29
-11 5 -8 -6 -9 -37 -5 -42 6 -43 6 -19 -8 36 -20 87 -29 95 -16 12 19 -6 50
-33 56 -39 10 -46 15 -31 25 7 4 19 3 25 -2 8 -7 17 -4 28 6 45 46 -26 49 -75
4z"/>
<path d="M2129 858 c-6 -17 -6 -58 0 -58 12 0 20 49 10 56 -5 3 -10 4 -10 2z"/>
<path d="M1986 834 c-9 -24 -7 -31 9 -31 8 0 15 8 15 18 0 24 -16 33 -24 13z"/>
<path d="M2020 824 c0 -23 3 -25 43 -22 35 2 43 7 45 26 4 26 -16 30 -25 5 -6
-15 -7 -15 -14 3 -7 18 -8 18 -15 -3 -8 -28 -24 -31 -17 -3 3 11 0 20 -6 20
-6 0 -11 -12 -11 -26z"/>
<path d="M1759 838 c-1 -2 -3 -16 -5 -31 -2 -24 0 -28 14 -22 9 4 22 7 27 8 6
1 13 9 17 17 5 12 7 12 7 -3 1 -15 9 -18 46 -16 40 2 45 5 45 26 0 13 -4 23
-10 23 -5 0 -10 -7 -10 -15 0 -21 -20 -19 -21 3 0 13 -3 12 -11 -5 -6 -13 -15
-23 -20 -23 -5 0 -4 9 2 20 9 17 7 19 -17 17 -16 -1 -34 -9 -41 -17 -8 -8 -11
-10 -8 -3 4 6 2 14 -4 18 -5 3 -11 5 -11 3z"/>
<path d="M650 811 c0 -9 66 -71 77 -71 3 0 60 -10 127 -22 104 -18 160 -22
401 -22 464 -2 827 15 888 39 9 4 17 16 17 27 0 17 -4 19 -27 13 -105 -26
-1068 -34 -1235 -10 -122 17 -210 36 -222 47 -13 11 -26 10 -26 -1z"/>
</g>
</svg>
