<?xml version="1.0" standalone="no"?>
<!DOCTYPE svg PUBLIC "-//W3C//DTD SVG 20010904//EN"
 "http://www.w3.org/TR/2001/REC-SVG-20010904/DTD/svg10.dtd">
<svg version="1.0" xmlns="http://www.w3.org/2000/svg"
 width="198.000000pt" height="255.000000pt" viewBox="0 0 198.000000 255.000000"
 preserveAspectRatio="xMidYMid meet">
<metadata>
Created by potrace 1.10, written by Peter Selinger 2001-2011
</metadata>
<g transform="translate(0.000000,255.000000) scale(0.100000,-0.100000)"
fill="#000000" stroke="none">
<path d="M447 2052 l-115 -129 -5 -69 c-3 -38 -6 -73 -5 -79 0 -5 2 -116 5
-245 3 -192 2 -236 -10 -245 -22 -16 -39 -53 -27 -60 6 -4 8 -15 5 -25 -4 -14
3 -23 29 -35 19 -9 37 -24 40 -32 6 -14 4 -14 -10 -2 -9 8 -59 30 -112 49 -82
30 -98 39 -106 63 -13 36 5 104 42 159 35 52 37 57 53 93 7 17 15 34 17 38 2
4 -8 6 -22 3 -15 -3 -24 -1 -21 5 4 5 10 7 15 4 5 -3 14 3 20 14 7 13 7 22 0
26 -9 6 -14 -1 -11 -18 0 -4 -2 -6 -7 -5 -16 6 -81 -66 -110 -120 -40 -75 -47
-118 -32 -197 17 -91 43 -126 107 -145 65 -20 69 -23 37 -40 -36 -20 -54 -60
-47 -104 7 -46 48 -71 99 -61 44 8 34 25 -14 26 l-37 1 45 12 c25 6 47 11 49
9 4 -2 1 -192 -3 -253 -1 -14 0 -29 3 -35 3 -5 4 -21 3 -36 -3 -20 9 -36 58
-78 33 -29 88 -79 122 -112 l62 -59 392 2 392 1 69 59 c37 32 96 81 131 110
l62 52 1 70 c11 572 10 570 34 574 20 4 20 4 1 -17 -19 -21 -19 -21 3 -21 34
0 156 122 177 176 9 24 20 41 24 39 15 -9 41 7 55 36 19 37 19 110 0 157 -24
55 -103 132 -137 132 -24 0 -28 -4 -29 -27 0 -26 -1 -26 -12 -9 -7 10 -36 51
-64 91 -29 40 -53 83 -53 95 0 19 -57 91 -193 242 l-42 47 -407 1 -406 0 -115
-128z m754 98 c23 -13 25 -52 4 -70 -13 -11 -14 -8 -9 18 3 16 1 32 -4 36 -19
11 -42 -6 -42 -31 0 -13 -4 -21 -10 -18 -15 9 -12 42 6 59 18 19 28 20 55 6z
m179 -25 c7 -8 20 -15 29 -16 11 0 12 -2 3 -6 -7 -3 -21 2 -30 10 -9 9 -35 17
-57 20 l-40 4 41 1 c26 1 46 -3 54 -13z m-306 -11 c19 -18 21 -34 5 -34 -13 0
61 -59 101 -80 14 -8 37 -13 52 -11 22 2 29 -3 34 -23 4 -16 1 -32 -6 -41 -15
-18 -51 -20 -68 -3 -19 19 -14 30 7 18 11 -5 27 -10 36 -10 23 0 15 44 -9 48
-11 2 -16 0 -12 -6 18 -29 -21 -17 -84 25 -63 43 -70 51 -68 78 3 24 -1 30
-17 30 -13 0 -21 -8 -23 -22 -4 -26 -22 -31 -22 -6 0 20 28 53 46 53 7 0 20
-7 28 -16z m-76 -6 c-3 -9 -52 -14 -188 -16 l-184 -4 -65 -68 c-36 -38 -70
-76 -76 -84 -9 -13 -12 -13 -29 -1 -19 15 -13 24 119 159 19 20 33 21 223 24
161 2 203 0 200 -10z m371 -4 c34 -11 -9 -21 -71 -16 -50 3 -68 8 -68 18 0 12
13 13 63 9 34 -4 68 -8 76 -11z m-194 -31 c-7 -32 -22 -50 -31 -40 -9 9 16 67
28 67 6 0 7 -11 3 -27z m-215 -4 c15 -26 7 -35 -13 -14 -22 21 -36 19 -49 -10
-6 -13 -15 -22 -19 -19 -14 8 -10 23 11 44 26 26 56 26 70 -1z m90 -10 c0 -25
-17 -59 -30 -59 -13 0 -13 24 2 55 14 30 28 33 28 4z m223 11 c21 0 20 -1 -3
-13 -14 -8 -40 -17 -57 -20 -26 -5 -31 -3 -26 8 3 8 17 15 32 15 21 0 23 2 11
11 -12 9 -12 10 3 5 10 -3 28 -6 40 -6z m175 -51 c54 -70 59 -79 40 -79 -21 0
-131 127 -115 133 23 10 27 7 75 -54z m-694 42 c7 -10 -16 -61 -27 -61 -5 0
-5 5 -2 10 4 6 3 10 -2 9 -4 -1 -21 1 -37 6 -25 7 -33 4 -54 -20 -15 -18 -22
-36 -19 -52 7 -36 -6 -35 -24 3 -16 33 -15 34 10 65 14 17 35 35 46 40 27 11
103 11 109 0z m594 -10 c-2 -4 23 -36 55 -71 36 -39 57 -71 57 -86 0 -13 4
-24 9 -24 16 0 35 -89 23 -113 -6 -12 -13 -32 -17 -44 -6 -21 -10 -21 -128
-20 l-122 2 -1 71 c-1 40 -5 77 -9 84 -4 7 -1 17 6 22 12 8 12 9 -1 6 -7 -3
-27 8 -42 22 -28 27 -36 50 -18 50 6 0 10 -6 10 -14 0 -22 38 -45 63 -38 34 8
47 22 47 53 0 33 -25 61 -54 58 -46 -3 -38 4 29 26 76 26 96 30 93 16z m-513
-21 c10 -11 13 -20 7 -20 -6 0 -14 5 -17 10 -12 19 -35 10 -46 -17 -7 -19 -13
-23 -21 -15 -8 8 -7 18 6 36 20 31 46 33 71 6z m90 -22 c-9 -40 -16 -50 -32
-40 -8 5 -8 15 2 40 19 43 39 43 30 0z m96 -19 c70 -53 79 -64 57 -72 -10 -3
-10 -8 -2 -17 18 -18 47 -8 55 20 l7 25 1 -25 c1 -32 -16 -50 -46 -50 -22 0
-47 35 -37 51 6 10 -104 91 -115 85 -5 -3 -7 3 -4 14 3 11 7 20 10 20 3 0 36
-23 74 -51z m-311 0 c14 -26 7 -35 -10 -14 -20 25 -50 19 -50 -10 0 -14 -4
-25 -10 -25 -11 0 -14 53 -3 63 15 16 63 6 73 -14z m89 -39 c-10 -21 -18 -27
-27 -21 -12 7 -11 14 3 41 12 23 20 29 28 21 8 -8 7 -19 -4 -41z m104 0 c31
-24 57 -49 57 -57 0 -18 -2 -17 -78 36 -34 25 -62 51 -62 59 0 19 16 12 83
-38z m237 35 c0 -12 -24 -55 -32 -55 -9 0 -10 7 -2 38 4 12 13 22 20 22 8 0
14 -2 14 -5z m-560 -35 c14 -26 0 -32 -20 -8 -19 24 -40 17 -40 -12 0 -10 -4
-22 -10 -25 -20 -13 -10 44 11 59 24 17 45 12 59 -14z m420 -29 c-23 -56 -41
-32 -20 25 8 20 14 24 22 16 8 -8 7 -19 -2 -41z m-330 -15 c-7 -23 -16 -33
-25 -29 -12 4 -12 10 0 40 8 20 15 38 15 41 0 3 5 1 11 -5 8 -8 8 -21 -1 -47z
m106 8 c66 -41 90 -64 66 -64 -22 0 -147 77 -150 93 -5 25 2 22 84 -29z m801
-30 c65 -68 169 -222 178 -262 7 -33 45 -76 45 -51 0 8 -11 38 -25 67 -49 105
-20 123 62 40 60 -62 82 -121 62 -170 -6 -16 -21 -34 -31 -39 -17 -9 -26 -5
-54 22 -18 17 -35 41 -37 53 -3 14 -5 11 -6 -10 -2 -46 -21 -93 -41 -104 -29
-15 -78 -12 -88 6 -7 13 -11 11 -26 -11 -14 -21 -24 -26 -47 -23 -20 3 -34 -1
-46 -14 -9 -10 -22 -18 -30 -18 -8 0 -22 -7 -30 -16 -9 -8 -24 -14 -33 -11
-12 3 -20 -5 -29 -29 -30 -84 -100 -123 -118 -66 -5 15 -9 32 -8 37 1 6 4 35
8 65 5 31 4 67 -1 80 l-9 24 -13 -24 c-8 -15 -10 -43 -7 -77 3 -30 2 -53 -4
-53 -5 0 -12 -1 -16 -2 -5 -1 -11 11 -14 28 -5 22 -7 24 -8 7 -1 -27 -42 -56
-73 -51 -29 4 -46 58 -31 98 9 25 8 27 -9 22 -11 -3 -17 -10 -14 -19 9 -23
-14 -110 -35 -129 -50 -45 -129 0 -129 74 0 39 32 102 52 102 6 0 9 3 6 6 -3
3 -15 0 -26 -7 -19 -12 -32 -10 -64 13 -15 10 -24 9 -52 -6 -38 -20 -66 -16
-66 9 0 13 17 15 120 14 69 0 120 -5 120 -11 0 -5 -6 -6 -12 -2 -7 4 -5 -2 5
-13 24 -28 23 -103 -3 -135 -21 -27 -18 -40 8 -31 47 16 56 97 21 171 -28 58
-10 74 32 28 25 -28 30 -30 50 -18 31 20 45 2 30 -39 -15 -43 -14 -74 3 -88
23 -19 38 14 42 92 1 39 -1 61 -5 47 l-7 -24 -21 34 c-58 97 -144 272 -141
287 9 47 74 8 133 -80 23 -34 41 -80 56 -143 21 -86 24 -92 37 -73 8 12 23 19
35 17 33 -5 48 -59 41 -145 -8 -88 5 -95 41 -23 29 58 30 60 9 60 -18 0 -44
57 -44 97 0 39 35 93 60 93 35 0 53 -42 48 -115 -2 -36 -3 -65 -2 -65 21 0 29
16 26 51 -8 78 52 179 97 164 18 -5 19 -12 14 -55 -3 -26 -3 -60 1 -74 9 -36
35 -33 43 5 4 22 8 27 15 17 5 -8 6 -2 2 16 -5 22 -4 27 6 21 9 -5 10 -2 5 15
-5 17 -4 21 5 15 9 -5 11 -4 6 3 -4 7 -2 12 5 12 7 0 9 3 6 7 -4 3 1 11 9 18
15 11 15 12 0 12 -19 0 -50 -54 -61 -107 -16 -74 -32 -56 -27 30 3 35 8 50 18
50 11 0 14 15 14 62 0 56 1 60 14 43 8 -11 12 -23 9 -28 -3 -5 3 -17 12 -27
14 -15 22 -17 37 -9 38 20 44 -6 15 -60 -15 -27 -27 -61 -27 -75 0 -37 28 -46
52 -16 25 31 21 119 -9 175 -30 56 -175 238 -193 242 -13 4 -13 2 0 -9 9 -7
29 -32 45 -54 17 -23 54 -69 83 -103 50 -60 62 -81 43 -81 -5 0 -48 41 -94 91
-93 98 -130 166 -107 194 20 24 31 19 87 -41z m-1118 24 c11 -28 3 -39 -10
-15 -6 9 -19 17 -31 17 -17 0 -20 -5 -16 -30 5 -33 -3 -38 -22 -15 -10 12 -9
20 4 40 21 33 63 34 75 3z m424 -11 c-1 -19 4 -26 23 -30 13 -2 24 0 24 6 0 6
8 3 19 -7 24 -22 51 -11 51 21 0 13 4 21 10 18 31 -19 -8 -81 -44 -70 -37 11
-66 12 -66 4 0 -5 -11 -16 -24 -24 -28 -19 -66 -6 -66 22 0 15 2 15 18 0 10
-10 24 -17 31 -17 20 0 25 30 7 43 -13 9 -16 20 -11 40 9 34 31 29 28 -6z
m-333 6 c0 -34 -12 -63 -26 -63 -20 0 -22 12 -8 48 15 34 34 43 34 15z m100
-43 c64 -43 75 -56 61 -64 -5 -4 -22 4 -38 17 -15 12 -47 35 -70 50 -24 15
-43 32 -43 38 0 15 21 6 90 -41z m-195 -42 c9 -35 20 -71 22 -80 3 -10 1 -18
-5 -18 -5 0 -19 26 -30 58 -33 91 -35 102 -19 102 8 0 21 -24 32 -62z m305 52
c0 -16 -23 -60 -32 -60 -11 0 -10 27 2 51 11 20 30 26 30 9z m428 -6 c2 -1 3
-45 3 -98 l-1 -95 52 -3 c29 -2 101 -2 161 0 l107 3 0 44 c0 24 3 51 6 60 6
14 8 14 25 -1 15 -13 19 -31 19 -82 l0 -65 -187 7 c-161 5 -190 8 -200 23 -8
10 -13 49 -13 99 l0 83 -70 3 c-56 2 -68 6 -61 17 7 11 15 11 42 2 26 -9 37
-8 53 3 18 12 51 12 64 0z m-625 -62 c37 -25 47 -42 25 -42 -21 0 -127 74
-132 93 -4 16 -1 15 32 -4 21 -12 54 -33 75 -47z m69 12 c-5 -25 -18 -38 -31
-30 -7 5 -7 14 1 32 13 28 35 27 30 -2z m415 1 c5 -4 -5 -5 -22 -1 -16 4 -26
4 -22 -1 5 -4 39 -11 75 -14 l67 -6 -72 -1 c-43 -1 -73 2 -73 8 0 6 -12 10
-27 10 -16 0 -34 4 -41 9 -7 4 13 7 47 6 34 -1 64 -5 68 -10z m-288 -178 c-1
-189 2 -219 29 -250 15 -17 16 -16 28 12 23 55 94 50 94 -5 0 -30 -33 -64 -62
-64 -13 0 -36 7 -52 15 -25 14 -27 14 -16 0 7 -8 19 -15 26 -15 10 0 14 -16
14 -60 0 -47 -4 -64 -21 -81 -25 -25 -50 -21 -66 11 l-13 25 0 -27 c0 -31 -26
-51 -51 -37 -13 6 -18 4 -22 -12 -4 -16 -12 -20 -34 -17 -18 2 -27 8 -25 18 1
10 -2 9 -13 -4 -8 -11 -15 -23 -15 -28 0 -4 -13 -8 -28 -8 -32 0 -52 19 -72
68 -14 35 -36 52 -68 52 -11 0 -32 9 -48 21 -16 12 -10 4 13 -18 66 -59 81
-120 41 -165 -13 -14 -30 -39 -40 -56 -9 -17 -28 -38 -42 -48 -36 -23 -105
-22 -122 1 -28 38 45 115 110 115 50 0 12 27 -77 55 -45 14 -87 31 -95 37 -52
43 -61 161 -19 248 36 75 72 118 87 104 8 -8 0 -27 -32 -73 -39 -57 -43 -68
-46 -135 -4 -74 10 -124 40 -142 8 -5 7 0 -2 11 -14 17 -13 18 5 11 11 -5 51
-19 89 -32 84 -29 116 -49 117 -72 0 -11 4 -7 10 10 13 34 -11 83 -52 106 -31
18 -34 24 -20 51 14 25 138 12 162 -17 9 -12 19 -19 22 -16 3 3 3 -3 1 -13 -6
-23 28 -69 44 -59 8 5 5 13 -8 26 -21 21 -36 96 -25 129 16 51 65 67 87 29 13
-24 18 -159 6 -151 -5 2 -8 -1 -8 -7 0 -6 7 -10 16 -8 13 2 17 17 18 68 2 85
37 153 75 148 23 -3 27 -9 37 -68 14 -86 23 -112 37 -107 15 5 22 107 7 107
-6 0 -16 12 -22 28 -7 15 -25 44 -41 65 -65 84 -96 217 -63 263 13 17 16 17
30 4 9 -9 24 -40 35 -70 l19 -55 3 105 4 106 -26 -4 c-15 -2 -30 1 -34 8 -10
16 3 26 17 12 18 -18 27 -15 38 13 5 14 12 25 15 25 2 0 4 -83 4 -183z m46
147 c-8 -6 -15 -16 -15 -23 0 -6 -4 -11 -10 -11 -11 0 -14 53 -4 63 3 3 15 0
25 -6 17 -11 17 -13 4 -23z m-300 -14 c-4 -19 -3 -30 4 -30 21 0 11 -40 -13
-55 -19 -13 -29 -14 -45 -5 -21 11 -30 60 -11 60 6 0 10 -9 10 -20 0 -13 7
-20 20 -20 24 0 37 27 21 43 -17 17 -14 57 5 57 12 0 14 -7 9 -30z m212 -64
c-2 -6 -15 -11 -29 -11 -30 0 -54 -19 -73 -55 -13 -25 -11 -34 16 -101 17 -41
37 -87 44 -104 13 -28 13 -31 -8 -40 -12 -5 -28 -18 -35 -27 -17 -23 -23 -23
-50 2 -21 20 -21 20 -57 -1 -19 -12 -35 -25 -35 -30 0 -17 -30 -9 -31 9 0 17
0 278 1 297 0 6 14 16 31 22 17 7 33 20 36 31 4 16 12 18 47 15 50 -5 76 13
76 54 0 25 0 25 35 -12 20 -20 34 -42 32 -49z m-296 -18 c0 -51 0 -154 0 -228
l0 -135 34 -23 c21 -13 35 -30 35 -42 0 -20 -1 -20 -27 -2 -16 10 -37 23 -48
28 -29 16 -36 67 -31 237 2 84 4 176 5 205 1 39 5 52 16 52 12 0 15 -17 16
-92z m219 74 c0 -39 -55 -57 -80 -27 -16 19 -5 34 12 17 19 -19 48 -14 48 8 0
11 5 20 10 20 6 0 10 -8 10 -18z m360 -17 c0 -44 96 -239 112 -229 6 4 9 1 6
-7 -3 -8 -17 -13 -34 -12 -16 1 -84 2 -151 2 l-123 0 0 134 c0 73 2 136 4 138
3 2 45 6 95 7 l91 3 0 -36z m116 20 c12 -30 -2 -35 -25 -11 l-24 26 22 0 c12
0 24 -7 27 -15z m346 -225 l-17 -40 -14 31 c-27 55 -88 45 -112 -20 -6 -15
-14 -21 -25 -17 -9 3 -28 6 -44 6 -21 0 -29 6 -34 24 -3 13 -9 31 -12 40 -5
14 10 16 134 16 l141 0 -17 -40z m263 -37 c-7 -32 -22 -50 -31 -40 -9 9 16 67
28 67 6 0 7 -11 3 -27z m87 -85 c-10 -24 -43 -68 -73 -97 -64 -63 -87 -77 -94
-58 -3 7 24 43 64 83 58 58 71 77 77 113 7 42 7 42 26 23 20 -19 20 -20 0 -64z
m-59 -6 c-22 -28 -24 -29 -88 -19 l-40 6 24 -19 c16 -14 31 -18 50 -13 21 5
15 -5 -38 -56 l-64 -62 -54 53 c-32 31 -48 54 -41 57 7 2 21 10 30 18 10 9 25
12 37 8 13 -4 27 1 41 15 17 17 24 18 41 10 26 -14 72 -4 95 21 25 28 31 13 7
-19z m-245 -135 l53 -54 -3 -69 c-2 -57 -6 -69 -21 -72 -17 -3 -18 3 -16 64 2
63 1 69 -32 107 -56 67 -62 77 -47 77 8 0 37 -24 66 -53z m-598 -22 c6 4 18 4
27 1 14 -6 14 -9 -2 -26 -10 -11 -25 -20 -34 -20 -24 0 -71 51 -71 79 l0 25
34 -33 c19 -19 39 -30 46 -26z m243 -25 c13 0 33 9 45 20 25 24 32 25 32 6 0
-9 7 -12 18 -9 14 3 21 -3 28 -28 20 -70 75 -60 122 23 15 26 33 48 40 48 7 0
10 -4 7 -10 -3 -5 -1 -10 4 -10 6 0 11 -5 11 -11 0 -6 9 -24 20 -39 11 -16 17
-35 14 -45 -6 -14 -8 -14 -26 1 -26 24 -68 8 -89 -34 -14 -28 -18 -30 -29 -17
-15 18 -71 20 -88 3 -7 -7 -12 -24 -12 -39 0 -15 -5 -31 -11 -35 -9 -5 -10 1
-5 22 4 19 3 24 -2 15 -8 -11 -11 -11 -18 0 -5 8 -10 22 -11 32 -9 57 -42 73
-125 64 l-50 -6 27 26 c14 15 29 40 32 55 l6 29 18 -31 c12 -19 27 -30 42 -30z
m-717 -42 c10 -12 14 -19 8 -15 -21 12 40 -95 62 -110 19 -12 27 -12 46 -2
l23 13 -30 6 c-28 6 -29 7 -8 14 15 5 31 1 48 -10 23 -15 57 -17 251 -18 l225
-1 4 -147 4 -148 -130 0 -129 0 0 48 c0 26 1 68 1 95 l0 47 -143 1 c-79 1
-182 4 -230 8 -83 6 -86 7 -72 25 8 11 14 14 14 7 0 -6 12 1 26 16 24 26 26
33 21 95 -2 37 -10 75 -17 83 -20 24 5 18 26 -7z m632 -24 l102 -6 0 -27 c0
-15 -8 -31 -20 -39 -14 -8 -20 -23 -20 -47 0 -24 6 -37 20 -45 24 -13 26 -36
4 -44 -31 -12 -34 -5 -34 79 l0 85 -32 1 c-157 6 -348 5 -348 -2 0 -4 12 -9
28 -11 15 -2 -3 -7 -44 -13 -58 -8 -71 -8 -67 3 3 7 13 10 22 7 9 -3 26 2 37
10 18 13 16 14 -24 15 -40 0 -53 18 -14 20 9 0 49 4 87 8 109 11 191 13 303 6z
m399 -6 c13 -16 23 -69 12 -63 -4 3 -11 0 -15 -6 -5 -8 1 -10 20 -7 38 8 32
-7 -10 -20 -27 -8 -33 -8 -27 1 4 7 8 28 8 47 0 28 -4 35 -20 35 -11 0 -21 -8
-23 -17 -3 -13 1 -16 14 -11 15 5 16 2 10 -33 -9 -46 -11 -48 -26 -39 -7 4 -9
18 -6 31 4 14 2 24 -4 24 -14 0 -13 43 2 58 16 16 53 15 65 0z m-129 -40 c7
-7 12 -16 12 -22 0 -6 -5 -5 -12 2 -18 18 -48 15 -48 -5 0 -10 -4 -25 -9 -32
-8 -12 -11 -9 -16 12 -5 17 -2 33 5 42 15 18 51 20 68 3z m-130 -40 c20 -20
13 -32 -7 -14 -23 21 -41 14 -41 -16 0 -17 2 -18 15 -8 9 7 17 11 19 9 2 -2
15 -37 29 -77 23 -67 22 -92 -4 -76 -8 4 -8 0 0 -15 16 -28 29 -26 43 7 9 22
12 24 15 9 7 -26 -16 -48 -46 -45 -22 3 -26 8 -26 38 -1 59 -25 128 -43 126
-21 -1 -28 39 -12 60 15 17 42 18 58 2z m145 0 c18 -9 83 -58 122 -90 6 -6 4
-12 -5 -18 -20 -12 2 -35 24 -27 24 9 19 44 -6 52 -21 6 -21 8 -4 12 27 7 50
-20 42 -51 -8 -34 -53 -47 -73 -20 -7 10 -11 24 -9 30 3 7 -14 24 -37 39 -50
33 -87 65 -87 77 0 11 7 10 33 -4z m-44 -41 c-5 -17 -9 -33 -9 -34 0 -2 -4 -3
-10 -3 -13 0 -13 36 1 61 16 30 29 13 18 -24z m247 -197 l-4 -230 -49 -44
c-26 -24 -76 -67 -110 -95 l-62 -52 -369 3 -370 3 -78 75 c-59 55 -75 77 -64
81 10 4 40 -16 85 -56 l70 -62 355 -7 355 -6 102 93 101 92 1 139 c1 82 6 153
13 173 10 27 10 38 0 53 -21 34 -14 70 14 70 11 0 12 -47 10 -230z m-60 194
c-22 -16 -46 -19 -46 -5 0 10 52 31 60 24 3 -3 -4 -11 -14 -19z m-210 -41 c59
-43 76 -63 56 -63 -14 0 -132 90 -132 100 0 17 10 12 76 -37z m107 9 c3 -4 -3
-22 -12 -41 -14 -26 -19 -30 -24 -17 -11 29 22 82 36 58z m-124 -73 c-12 -21
-14 -22 -17 -6 -6 28 6 53 19 40 8 -8 7 -18 -2 -34z m161 18 c0 -8 15 -26 33
-41 l33 -27 2 -107 3 -107 -97 -93 -96 -93 -347 3 -346 3 -30 30 c-17 17 -44
42 -60 55 -28 23 -29 27 -19 58 l11 34 17 -26 c27 -41 88 -30 107 21 8 21 12
23 24 13 9 -8 31 -11 55 -7 22 3 43 1 46 -4 3 -5 91 -9 196 -9 l191 0 23 28
c20 23 24 38 24 95 0 64 1 68 20 62 33 -11 70 20 70 58 l0 32 13 -25 c19 -37
80 -41 102 -6 10 15 14 33 10 46 -4 11 -2 20 4 20 6 0 11 -6 11 -13z m-30 -22
c0 -44 -69 -59 -84 -18 -10 25 2 28 25 7 20 -18 21 -18 35 0 7 10 11 23 8 27
-3 5 0 9 5 9 6 0 11 -11 11 -25z m-234 -67 c-3 -46 -5 -105 -6 -131 l0 -48
-205 2 c-113 1 -205 4 -205 8 0 3 4 12 9 20 8 12 43 15 185 15 96 0 175 2 174
5 0 3 0 52 1 109 l1 102 26 0 26 0 -6 -82z m-491 52 c19 -16 19 -56 2 -67 -8
-4 -26 -41 -41 -80 -15 -40 -31 -73 -35 -73 -18 0 -19 15 -4 43 8 17 23 54 33
81 13 38 22 50 35 48 11 -2 16 2 13 15 -2 10 -13 19 -26 21 -22 3 -26 -5 -22
-42 1 -11 -3 -15 -9 -12 -15 10 -14 49 2 65 10 10 9 11 -5 6 -10 -4 -18 -14
-18 -22 0 -10 -10 -14 -37 -12 -87 6 -143 -1 -143 -16 0 -9 -9 -15 -24 -15
-21 0 -24 4 -21 28 2 15 4 33 4 39 1 17 275 10 296 -7z m53 14 c19 -6 22 -13
22 -55 0 -27 -4 -49 -10 -49 -5 0 -10 11 -10 25 0 13 -6 28 -12 32 -7 4 -19
18 -26 31 -13 24 -7 27 36 16z m-161 -71 c3 -7 -8 -11 -29 -10 -27 2 -34 -2
-36 -20 -4 -26 -22 -32 -22 -7 0 35 21 55 52 52 17 -2 33 -8 35 -15z m-137
-28 c17 -21 6 -29 -18 -14 -16 10 -23 10 -36 0 -8 -7 -12 -19 -9 -27 4 -11 8
-12 20 -3 8 7 17 8 22 3 17 -17 49 -144 39 -150 -5 -3 -11 -4 -12 -3 -11 13
-35 69 -40 95 -4 20 -15 34 -27 37 -12 3 -19 14 -19 31 0 40 55 62 80 31z
m159 -15 c14 -12 21 -26 17 -36 -5 -13 -9 -13 -31 3 -13 10 -25 25 -25 33 -1
8 -16 -23 -35 -69 -25 -61 -32 -88 -24 -97 7 -9 5 -18 -10 -33 -26 -26 -57
-27 -70 -3 -5 9 -13 15 -18 12 -4 -3 -9 12 -11 33 -2 21 1 37 7 37 11 0 15
-13 12 -39 -2 -7 2 -10 8 -7 5 4 12 -3 16 -14 4 -11 15 -20 26 -20 24 0 37 29
18 40 -11 7 -9 21 9 77 26 78 31 88 52 96 25 9 34 7 59 -13z m166 -30 c0 -37
-19 -34 -23 3 -2 17 1 27 10 27 8 0 13 -12 13 -30z m-295 -8 c24 -19 20 -45
-4 -36 -16 6 -40 54 -27 54 5 0 19 -8 31 -18z m239 -36 c17 -20 -2 -29 -33
-15 -25 12 -33 29 -20 42 8 8 36 -7 53 -27z m41 9 c33 -40 -31 -98 -68 -62
-19 20 -8 35 13 17 8 -7 22 -10 30 -6 19 7 19 35 0 42 -8 4 -15 10 -15 15 0
14 26 10 40 -6z m-185 -31 c26 -17 34 -44 13 -44 -22 1 -61 37 -54 49 9 14 12
14 41 -5z m64 -70 c-17 -21 -73 -14 -77 9 -3 16 -1 17 16 8 31 -17 41 -13 54
17 11 26 12 27 16 4 2 -13 -2 -30 -9 -38z m-207 -69 c4 -5 5 -11 2 -14 -6 -6
-54 40 -54 52 0 10 38 -18 52 -38z"/>
<path d="M1041 1738 c9 -7 44 -66 78 -131 62 -118 78 -129 38 -25 -27 69 -77
143 -109 158 -20 9 -21 9 -7 -2z"/>
<path d="M1782 1675 c28 -31 58 -102 58 -138 0 -20 0 -20 -22 -1 l-23 18 22
-23 c25 -28 53 -22 53 10 0 35 -28 83 -73 125 -23 22 -30 26 -15 9z"/>
<path d="M1502 1518 c-28 -94 -26 -148 5 -98 11 17 30 170 21 170 -2 0 -13
-33 -26 -72z"/>
<path d="M1367 1506 c-11 -28 -8 -61 8 -97 10 -24 14 -28 15 -14 0 11 3 36 6
55 6 41 -17 87 -29 56z"/>
<path d="M966 1385 c-10 -26 -7 -87 4 -80 14 9 24 75 13 86 -7 7 -12 5 -17 -6z"/>
<path d="M663 1611 c6 -44 53 -155 73 -172 11 -9 11 -5 -1 17 -8 16 -15 36
-15 45 0 9 -9 47 -20 83 -23 73 -46 90 -37 27z"/>
<path d="M841 1380 c-21 -18 -21 -20 -4 -20 19 0 43 18 43 32 0 13 -13 9 -39
-12z"/>
<path d="M684 1371 c4 -6 0 -32 -10 -56 -10 -28 -15 -59 -11 -84 4 -32 1 -41
-12 -44 -15 -4 -15 -5 1 -6 36 -2 49 27 46 110 -1 44 -6 83 -11 86 -6 3 -7 1
-3 -6z"/>
<path d="M546 1304 c-14 -36 -3 -109 15 -98 5 3 9 27 9 54 0 49 -13 73 -24 44z"/>
<path d="M340 1062 c0 -7 -11 -12 -24 -12 -26 0 -91 -40 -88 -55 2 -17 39 -17
72 0 29 15 57 61 45 73 -3 3 -5 0 -5 -6z m-29 -42 c-24 -21 -67 -28 -56 -9 8
12 43 28 65 28 10 0 8 -6 -9 -19z"/>
<path d="M1582 1376 c-17 -7 -38 -18 -45 -25 -10 -11 -9 -12 3 -5 8 4 25 7 38
5 23 -3 52 14 52 30 0 11 -5 10 -48 -5z"/>
</g>
</svg>
