<?xml version="1.0" standalone="no"?>
<!DOCTYPE svg PUBLIC "-//W3C//DTD SVG 20010904//EN"
 "http://www.w3.org/TR/2001/REC-SVG-20010904/DTD/svg10.dtd">
<svg version="1.0" xmlns="http://www.w3.org/2000/svg"
 width="300.000000pt" height="168.000000pt" viewBox="0 0 300.000000 168.000000"
 preserveAspectRatio="xMidYMid meet">
<metadata>
Created by potrace 1.10, written by Peter Selinger 2001-2011
</metadata>
<g transform="translate(0.000000,168.000000) scale(0.100000,-0.100000)"
fill="#000000" stroke="none">
<path d="M1715 1651 c-6 -5 -84 -52 -175 -104 -91 -53 -164 -99 -163 -104 1
-4 113 -200 248 -435 l247 -428 239 0 c132 0 239 3 239 6 0 3 -8 18 -18 32
-10 15 -148 252 -307 527 -159 275 -291 503 -295 508 -3 4 -10 3 -15 -2z m282
-536 c150 -259 273 -476 273 -482 0 -10 -43 -13 -183 -13 -163 0 -186 2 -199
18 -24 27 -450 770 -452 788 -1 17 250 166 274 162 8 -2 137 -215 287 -473z"/>
<path d="M1145 1179 c-93 -54 -174 -100 -179 -102 -6 -2 54 -114 132 -249 133
-229 142 -248 142 -296 l0 -52 50 0 50 0 0 50 0 50 193 -2 192 -3 3 -87 3 -86
-38 19 c-85 43 -213 9 -269 -73 -23 -32 -29 -54 -32 -107 -4 -82 23 -141 86
-186 53 -37 146 -46 207 -21 22 10 41 13 44 7 3 -5 25 -11 49 -12 l43 -3 2
276 2 277 -54 3 -54 3 -174 300 c-96 165 -186 321 -201 346 l-27 46 -170 -98z
m331 -254 c90 -154 163 -286 164 -292 0 -10 -36 -13 -145 -13 -145 0 -146 0
-170 -26 -14 -15 -25 -33 -25 -40 0 -28 -18 -13 -23 19 -3 18 -62 131 -132
252 -86 148 -125 223 -119 232 15 22 248 153 268 150 13 -1 68 -87 182 -282z
m302 -737 l-3 -113 -50 -2 c-27 -1 -77 -4 -110 -8 -51 -5 -66 -3 -100 17 -98
57 -113 189 -30 271 46 45 55 30 9 -17 -23 -24 -45 -58 -49 -75 -13 -61 32
-143 97 -177 82 -43 191 15 218 116 13 48 -5 98 -52 148 -32 32 -32 32 -8 32
41 0 70 37 72 94 1 28 4 0 5 -61 2 -62 2 -164 1 -225z m-110 142 c19 -12 40
-37 49 -58 21 -50 2 -107 -46 -139 -67 -45 -153 -15 -180 62 -12 35 -11 45 2
77 18 43 68 78 112 78 17 0 45 -9 63 -20z"/>
<path d="M867 896 c-10 -8 -87 -54 -172 -102 -85 -49 -155 -92 -155 -95 0 -3
14 -31 31 -62 l31 -57 240 0 c132 0 238 4 236 8 -10 25 -184 321 -188 321 -3
0 -13 -6 -23 -13z m78 -155 c30 -54 55 -103 55 -109 0 -9 -49 -12 -185 -12
l-185 0 -17 26 c-11 18 -14 31 -7 41 14 23 256 161 271 156 7 -3 38 -49 68
-102z"/>
<path d="M1090 491 l0 -89 -37 19 c-78 40 -189 16 -250 -54 -91 -104 -58 -263
68 -328 46 -23 142 -25 179 -4 31 18 40 18 40 3 0 -9 17 -13 50 -13 l50 0 0
278 0 277 -50 0 -50 0 0 -89z m58 -193 l-3 -223 -60 -2 c-33 -1 -79 -4 -102
-8 -58 -10 -106 9 -147 57 -44 51 -54 107 -31 166 16 40 65 92 87 92 5 0 -5
-12 -23 -27 -87 -74 -82 -185 13 -253 71 -52 153 -35 211 42 52 69 47 126 -15
194 -40 44 -40 44 -15 44 41 0 67 36 67 92 0 26 5 48 10 48 7 0 9 -76 8 -222z
m-128 39 c32 -16 70 -73 70 -106 0 -36 -33 -87 -69 -106 -79 -40 -174 16 -174
104 0 89 95 148 173 108z"/>
<path d="M410 429 c-175 -70 -180 -322 -8 -394 47 -19 128 -19 173 -1 19 8 35
11 35 6 0 -4 23 -10 50 -12 l50 -3 0 208 0 207 -50 0 c-38 0 -50 -4 -50 -15 0
-8 -2 -15 -4 -15 -2 0 -20 7 -39 15 -41 17 -119 19 -157 4z m260 -199 l0 -159
-52 0 c-29 1 -78 -2 -109 -6 -81 -11 -146 25 -177 98 -7 16 -8 27 -2 27 6 0
10 -6 10 -12 1 -40 95 -108 148 -108 79 0 162 81 162 159 0 40 -41 115 -73
133 -21 12 -21 13 13 19 87 16 80 29 80 -151z m-288 111 c-29 -28 -43 -51 -47
-78 -11 -65 -13 -69 -14 -30 -1 49 20 98 54 125 46 36 50 25 7 -17z m168 -7
c83 -49 78 -169 -8 -210 -78 -37 -172 22 -172 107 0 35 6 48 39 80 31 31 46
39 76 39 20 0 49 -7 65 -16z"/>
<path d="M1240 233 l0 -208 50 0 50 0 0 208 0 207 -50 0 -50 0 0 -207z m60 2
c0 -90 -4 -145 -10 -145 -6 0 -10 55 -10 145 0 90 4 145 10 145 6 0 10 -55 10
-145z"/>
<path d="M1980 418 c-88 -46 -136 -145 -112 -235 16 -58 56 -111 108 -140 46
-27 144 -31 184 -8 31 18 40 18 40 3 0 -9 17 -13 50 -13 l50 0 0 208 0 207
-50 0 c-38 0 -50 -4 -50 -15 0 -8 -2 -15 -4 -15 -2 0 -20 7 -39 15 -53 22
-125 19 -177 -7z m278 -185 l-3 -158 -60 0 -60 -1 47 48 c74 74 75 148 2 219
l-35 34 33 6 c18 4 43 7 56 8 l23 1 -3 -157z m-271 126 c-36 -27 -67 -89 -67
-134 0 -41 38 -105 79 -132 14 -9 49 -20 76 -24 l50 -6 -48 -2 c-56 -1 -94 16
-131 59 -36 44 -50 100 -35 152 11 43 66 108 91 108 7 0 0 -10 -15 -21z m171
-43 c33 -31 37 -39 37 -85 0 -44 -4 -55 -33 -83 -28 -29 -39 -33 -83 -33 -46
0 -54 4 -85 37 -27 30 -34 46 -34 79 0 35 6 48 39 80 32 33 45 39 80 39 33 0
49 -7 79 -34z"/>
<path d="M2435 426 c-55 -24 -80 -62 -80 -118 0 -70 35 -101 136 -118 74 -13
119 -32 119 -50 0 -6 -9 -19 -20 -30 -36 -36 -125 -19 -136 27 -6 21 -12 23
-61 23 -55 0 -55 0 -48 -27 18 -75 83 -113 191 -113 72 0 131 23 158 62 9 13
16 43 16 71 0 65 -36 101 -118 117 -31 6 -73 16 -93 21 -62 16 -60 60 1 73 39
7 81 -9 87 -34 5 -17 14 -20 60 -20 52 0 54 1 47 23 -13 41 -43 75 -84 91 -49
19 -134 20 -175 2z m-11 -86 c-9 -45 35 -85 112 -99 85 -17 122 -36 130 -67 9
-36 -5 -73 -36 -93 l-24 -16 17 25 c43 61 -3 116 -115 136 -103 19 -142 66
-102 122 20 30 25 28 18 -8z"/>
</g>
</svg>
